<svg xmlns="http://www.w3.org/2000/svg" width="262.579" height="307.264" viewBox="0 0 262.579 307.264"><g transform="translate(-1790.674 -173.57)"><g transform="translate(1825.701 173.57)"><path d="M2155.7,548.136H1964.48s-2.448-3.216-1.818-4.29,3.008-1.786,1.818-3.216-2.448-3.574-1.818-4.646,3.008-1.788,1.818-3.576-2.1-3.217-1.986-4.289,1.986-2.859,1.986-2.859a2.394,2.394,0,0,0,0-2.5,19.067,19.067,0,0,1-1.818-4.289l1.818-2.5V500.951a11.4,11.4,0,0,1,0-4.289c.512-1.431-1.528-4.648,0-5.362s191.221,0,191.221,0a7.494,7.494,0,0,1,0,2.859c-.34,1.072-.34-1.431-.34,1.072s.64,3.218.49,4.648.878,1.788.022,4.289,1.525,2.5-.172,4.291-3.742,2.5-3.06,3.573,5.438,1.43,3.06,2.86-2.042-.358-2.381,1.429,2.681,2.188,3.041,3.238-.727,1.41-.525,3.554.993,2.147.6,3.933-3.113.377-2.773,2.513,2.042,2.134,2.042,3.207v4.29c0,1.072,1.018,1.786,0,2.86s-3.4,1.071-3.4,2.144,5.1,2.145,3.4,2.86S2155.7,548.136,2155.7,548.136Z" transform="translate(-1954.284 -411.123)" fill="#92c25d"/><g transform="translate(9.502 96.994)"><path d="M2046.76,591.549c-1.564-2.394-2.829-.8-2.431-2.394s1.994-3.993,2.4-7.185-2.793-6.387-4.39-5.588a2.258,2.258,0,0,1-3.015-2.8c.577-2-1.376-1.6-4.569-2.4s-2-.8-1.2-1.995,4.39-2.608,5.587-4.79-3.991-2-5.587-4.391-3.994.4-5.591,2.247-3.989-.252-6.786,0-1.994,4.327-1.2,4.327,3.593,1.81,5.19,3.4-1.995,2.4-5.19,1.2,0,0-1.2-.8-2.393-.8-3.59-1.2-2.8.4-3.993-2.608-5.587-1.784-5.777-1.784a33.46,33.46,0,0,0-4.864,3.593c-.663.8-2.932,3.592-6.524,3.991s-3.194,3.194-3.194,3.194c-.4,1.2-2.793,0-4.788,0s-2,2.394-2,4.558,2.4,1.029,3.594,3.424,4.79,1.6,4.79,1.6c2,2,7.585.8,5.988,1.6s-.8,3.194-2.395,4.389,2.395,4.393,4.178,6.577-3.781,1.409-4.974,0-3.6,1.409-3.6,0,.8-4.18-.8-4.579-3.592,0-4.39-1.2-3.992.4-3.992-1.6,0,0,2-.8-.8-2.8-.8-4.792-2.392-1.6-3.191-3.991-3.99,2.793-3.99,2.793a16.585,16.585,0,0,0-4.792,0c-2.394.4-3.591,2.795-3.992,5.85s3.594-1.857,4.791.54,5.19-2,3.993,0-3.6,1.995-5.589,1.995-.8,4.391-2.4,5.768a8.255,8.255,0,0,0-.664.634c.3.451.532.755.532.755h80.289C2048.464,595.9,2047.95,593.374,2046.76,591.549Z" transform="translate(-1967.658 -559.088)" fill="#50ac51"/><path d="M2410.412,602.444c-1.6-1.188-.821-3.588-2.42-4.376s3.993.374,5.976-1.635c0,0,3.6.777,4.781-1.626s3.585-1.283,3.572-3.448-.026-4.556-2.024-4.544-4.384,1.224-4.789.027c0,0,.382-2.795-3.214-3.171s-5.88-3.158-6.545-3.953a33.685,33.685,0,0,0-4.887-3.564c-.189,0-4.588-1.192-5.765,1.819s-2.783,2.224-3.978,2.632-2.393.413-3.584,1.219,1.992-.412-1.192.8-6.784.442-5.2-1.165,4.37-3.433,5.171-3.437,1.57-4.086-1.225-4.32-5.179,1.879-6.787.042-4.02-4.618-5.6-2.214-6.771,2.249-5.558,4.426,4.808,3.564,5.617,4.756,2,1.186-1.185,2-5.143.432-4.556,2.423a2.258,2.258,0,0,1-3,2.815c-1.6-.79-4.773,2.423-4.354,5.614s2.028,5.577,2.438,7.172-.866.006-2.415,2.41a11.639,11.639,0,0,0-1.548,4.571h49.312C2409.335,605.716,2411.716,603.408,2410.412,602.444Z" transform="translate(-2259.894 -567.705)" fill="#50ac51"/><path d="M2603.6,664.762c-1.994.011-4.39.027-5.6-1.962s2.807,2.378,3.992-.025,5.2,2.489,4.786-.566-1.632-5.441-4.029-5.826a16.543,16.543,0,0,0-4.79.03s-3.225-5.172-4.009-2.771-3.181,2.014-3.169,4.011-2.771,4.009-.77,4.8,1.989-1.211,2,.786-3.19.418-3.98,1.621-2.791.815-4.385,1.224c-1.191.306-1.037,1.927-.879,3.315h22.588C2604.769,667.573,2605.2,664.752,2603.6,664.762Z" transform="translate(-2427.93 -629.378)" fill="#97acad"/></g><path d="M2123.107,373.683H1931.887s-2.449-1.916-1.819-2.555,3.009-1.064,1.819-1.916-2.449-2.128-1.819-2.768,3.009-1.064,1.819-2.13-2.1-1.916-1.984-2.553,1.984-1.7,1.984-1.7.85-.853,0-1.493a9.643,9.643,0,0,1-1.819-2.554l1.819-1.489v-8.942a4.113,4.113,0,0,1,0-2.554c.512-.852-1.529-2.769,0-3.194s191.219,0,191.219,0a2.7,2.7,0,0,1,0,1.7c-.34.638-.34-.853-.34.638s.644,1.915.49,2.769.878,1.064.026,2.553,1.525,1.492-.176,2.556-3.739,1.49-3.059,2.128,5.44.853,3.059,1.7-2.039-.214-2.377.851,2.681,1.3,3.039,1.928-.729.84-.524,2.117.991,1.278.6,2.343-3.112.224-2.774,1.495,2.039,1.273,2.039,1.911v2.556c0,.638,1.019,1.063,0,1.7s-3.4.639-3.4,1.277,5.1,1.28,3.4,1.7S2123.107,373.683,2123.107,373.683Z" transform="translate(-1929.893 -297.859)" fill="#a4ca68"/><path d="M2147.419,261.174H1956.2s-2.447-1.169-1.818-1.559,3.009-.649,1.818-1.169-2.447-1.3-1.818-1.687,3.009-.65,1.818-1.3-2.1-1.17-1.987-1.558,1.987-1.04,1.987-1.04.849-.52,0-.909a6.885,6.885,0,0,1-1.818-1.559l1.818-.908v-5.454s-.51-1.039,0-1.558-1.528-1.689,0-1.949,191.219,0,191.219,0,.339.649,0,1.039-.338-.52-.338.39.642,1.168.49,1.686.876.651.023,1.56,1.527.908-.175,1.558-3.738.91-3.06,1.3,5.44.52,3.06,1.04-2.039-.13-2.378.519,2.682.793,3.041,1.176-.73.512-.525,1.292.992.778.6,1.428-3.114.137-2.774.911,2.039.777,2.039,1.167v1.559c0,.389,1.02.65,0,1.038s-3.4.39-3.4.78,5.1.779,3.4,1.039S2147.419,261.174,2147.419,261.174Z" transform="translate(-1948.087 -223.593)" fill="#c3d775"/><path d="M2131.213,186.165H1939.994s-2.448-.708-1.82-.947,3.009-.393,1.82-.707-2.448-.788-1.82-1.025,3.009-.393,1.82-.787-2.1-.709-1.985-.945a7.582,7.582,0,0,1,1.985-.63s.849-.316,0-.552a6.973,6.973,0,0,1-1.82-.944l1.82-.551v-3.309s-.51-.63,0-.945-1.528-1.024,0-1.18,191.219,0,191.219,0,.34.393,0,.63-.339-.317-.339.236.642.709.491,1.024.875.4.021.944,1.527.553-.173.947-3.739.55-3.06.787,5.439.315,3.06.631-2.04-.079-2.38.316,2.683.48,3.043.713-.729.309-.526.783.991.473.6.866-3.114.083-2.773.554,2.04.47,2.04.707v.945c0,.237,1.018.394,0,.63s-3.4.237-3.4.473,5.1.473,3.4.631S2131.213,186.165,2131.213,186.165Z" transform="translate(-1935.959 -173.57)" fill="#d9de6b"/><path d="M1939.741,806.934s.952,17.464,2.083,18.685-.316,7.717,0,10.561-2.918,1.678-3.9,2.843,1.818,2.077,0,4.342-.063,1.05-1.819,2.268,1.339,3.14,1.819,3.952,1.147,4.469,0,5.688-2.1,5.281-2.915,7.313,2.435,2.437,2.915,4.062-.072,2.438-.685,2.913.613,1.962.685,3.179,1.553,2.437,0,3.658-.072,2.843.642,3.22,1.318,2.873.387,3.206.118,4.136,0,6.09,2.551,2.107.785,3.915,0,5.381,0,5.381h191.218s.963-5.567,0-6.988.192-3.042.428-4.262a15.388,15.388,0,0,0-.428-4.136s1.108-2.016.479-3.206.077-1.19-.479-3.626,1.086-2.844.671-4.468.7-3.657-.671-5.688.963-2.845,0-5.28-3.4-3.657-2.181-5.687,3.548-2.439,2.181-4.064-3.4-3.249-2.181-4.874,4.361-1.537,2.181-4.83-3.805-23.2-3.4-24.418,3.4-21.475,3.4-21.475.963-4.308,0-6.651-.257-3.156,0-4.375-.257-2.15,0-4.528,1.651-3.6.751-5.626-2.227-2.963-.751-5.343,7.963-3.189,4.924-4.408-5.587-3.251-4.924-4.468,2.9-.813,2.389-2.845-3.865-.789-2.389-3.644,3.708-5.7,2.389-7.324.507-4.062,0-6.5a10.766,10.766,0,0,0-2.389-4.462H1939.741v71.9" transform="translate(-1933.624 -593.773)" fill="#e5915b"/><path d="M1939.741,806.934s.952,17.464,2.083,18.685-.316,7.717,0,10.561-2.918,1.678-3.9,2.843,1.818,2.077,0,4.342-.063,1.05-1.819,2.268,1.339,3.14,1.819,3.952,1.147,4.469,0,5.688-2.1,5.281-2.915,7.313,2.435,2.437,2.915,4.062-.072,2.438-.685,2.913.613,1.962.685,3.179,1.553,2.437,0,3.658-.072,2.843.642,3.22,1.318,2.873.387,3.206.118,4.136,0,6.09,2.551,2.107.785,3.915,0,5.381,0,5.381h191.218s.963-5.567,0-6.988.192-3.042.428-4.262a15.388,15.388,0,0,0-.428-4.136s1.108-2.016.479-3.206.077-1.19-.479-3.626,1.086-2.844.671-4.468.7-3.657-.671-5.688.963-2.845,0-5.28-3.4-3.657-2.181-5.687,3.548-2.439,2.181-4.064-3.4-3.249-2.181-4.874,4.361-1.537,2.181-4.83-3.805-23.2-3.4-24.418,3.4-21.475,3.4-21.475.963-4.308,0-6.651-.257-3.156,0-4.375-.257-2.15,0-4.528,1.651-3.6.751-5.626-2.227-2.963-.751-5.343,7.963-3.189,4.924-4.408-5.587-3.251-4.924-4.468,2.9-.813,2.389-2.845-3.865-.789-2.389-3.644,3.708-5.7,2.389-7.324.507-4.062,0-6.5a10.766,10.766,0,0,0-2.389-4.462H1939.741v71.9" transform="translate(-1933.624 -593.773)" fill="#50ac51"/><path d="M2130.959,865.835c-1.368-2.03.963-2.845,0-5.28s-3.4-3.657-2.181-5.687,3.548-2.439,2.181-4.064-3.4-3.249-2.181-4.874,4.361-1.537,2.181-4.83-3.805-23.2-3.4-24.418c.115-.34.427-2.155.821-4.6-1.3-1.144-2.3-.133-.688-1.759.366-.372.748-.723,1.136-1.063.973-6.217,2.131-14.057,2.131-14.057a21,21,0,0,0,.392-2.881,3.786,3.786,0,0,0-1.772.426c-3.582,1.619-6.362,4.029-5.975,1.635a12,12,0,0,1,5.941-7.624c.3-.152.616-.285.932-.413a10.628,10.628,0,0,1,.482-2.169,3.956,3.956,0,0,0,.059-1.1c-.308-.275-.312-.8-.114-1.482a11.847,11.847,0,0,1,.055-1.944c.259-2.378,1.651-3.6.751-5.626-.12-.273-.249-.524-.376-.765-2.585,4.856-8.239,15.137-9.764,15.146-1.419.011-1.074-8.471-.756-13.373a5.2,5.2,0,0,0,3.473.583c1.971-.26,4.7-2.049,6.49-3.375a3.088,3.088,0,0,1,.183-3.559c1.477-2.377,7.963-3.189,4.924-4.408s-5.587-3.251-4.924-4.468,2.9-.813,2.389-2.845c-.369-1.476-2.234-1.228-2.664-2.076a1.605,1.605,0,0,0-1.732.558c-1.981,2.192-4.359,5-3.152,6.591s4.4,1.57,3.214,3.175-2.792.417-3.581,2.017-.061,2.4-2.028,1.208.007-5.587-2.785-4.771a4.633,4.633,0,0,1-.973.164,4.293,4.293,0,0,0,.546-4.554c-1.612-2.781-2.812-3.191-4.814-4.368s-2.819-3.968-4.014-3.162c-.857.581.94-3.391,2.016-5.674a7.042,7.042,0,0,0,4.341.444s1.569-4.8,3.572-3.612-.393,1.2,2,1.185-.769-1.991,3.6-1.62,6.36-1.505,5.951-2.965a3.067,3.067,0,0,1,.041-1.436,11.668,11.668,0,0,0-1.931-3.033h-89.922c-.015.635-.022,1.286-.018,1.971.027,4.79,2.836,7.168.059,9.581s-6.777,1.645-4.765,4.622c1.613,2.382,1.789,8.225.635,10.062-.792-.414-1.82-.293-1.585-1.716.4-2.4-3.592-1.6-5.848-.8s-2.533-7.582-.538-10.57-1.994-2.2-4.788-4.6c-2.588-2.215-.389-4.436-.046-8.552h-84.4v4.923c2.2.15.147,1.634,2.215,1.634,2.4,0,0,0,2-1.2s3.591,3.593,3.591,3.593a7.07,7.07,0,0,0,4.337-.472c1.095,2.274,2.912,6.235,2.053,5.659-1.2-.8-2,2-3.994,3.187s-3.192,1.6-4.79,4.4a4.3,4.3,0,0,0,.577,4.551,4.58,4.58,0,0,1-.975-.159c-2.795-.8-.8,3.594-2.755,4.791s-1.239.4-2.038-1.2a1.881,1.881,0,0,0-.217-.341v8.348a6.6,6.6,0,0,0,1.416.376,5.21,5.21,0,0,0,3.468-.6c.347,4.9.746,13.377-.673,13.377-.721,0-2.385-2.3-4.211-5.232v6.786a10.433,10.433,0,0,1,2.215,4.432c.241,1.438-.675,1.146-2.215.344v14.7s.952,17.464,2.083,18.685-.316,7.717,0,10.561-2.918,1.678-3.9,2.843,1.818,2.077,0,4.342-.063,1.05-1.819,2.268,1.339,3.14,1.819,3.952,1.147,4.469,0,5.688-2.1,5.281-2.915,7.313,2.435,2.437,2.915,4.062a2.55,2.55,0,0,1-.332,2.575c1.94.811,5.109.935,6.762.109,2.4-1.2,3.191-.4,3.191-.4s2.794,1.2,4.793.8,1.6-3.6,3.991-2.4a32,32,0,0,0,6.5,1.9c.087.164.184.327.283.5.559.927,1.028.558,1.612-.178.814.113,1.617.193,2.374.222-.04.353-.249,2.805,1.6,3.546a8.588,8.588,0,0,0,8.384-1.594c2.8-2.4,5.473,2.793,5.473,2.392s4.506-1.2,6.5-2.392,2.793,3.591,4.39,5.392.8-5,2.794-5.794,3.992,4.392,6.785,5.587,0-3.191-.4-4.788,5.988,1.2,5.988,1.2c9.979,3.993,15.967-2.793,15.967-2.793s3.593-1.6,4.39-5.189a3.38,3.38,0,0,0-.048-1.732,6.4,6.4,0,0,1,1.685.007c2.795.381,5.184-.723,7.187.408.258.147.526.307.8.474a3.784,3.784,0,0,0-1.568,3.868c.819,3.584,4.424,5.162,4.424,5.162s6.029,6.748,15.984,2.7c0,0,6.368-2.832,5.98-1.233s-3.156,6.007-.37,4.791,4.751-6.416,6.753-5.628,1.244,7.586,2.829,5.775,2.354-6.6,4.357-5.422,6.515,1.96,6.519,2.358,2.648-4.806,5.457-2.427a8.585,8.585,0,0,0,8.394,1.544c1.845-.753,1.621-3.2,1.579-3.555.758-.036,1.561-.121,2.375-.239.587.735,1.062,1.1,1.612.168.1-.169.2-.332.282-.5a31.81,31.81,0,0,0,6.49-1.94c2.386-1.212,2.006,1.984,4.006,2.372s4.786-.828,4.786-.828.792-.8,3.2.379,7.984.35,8.37-1.646a1.8,1.8,0,0,1,1.609-1.532A4.448,4.448,0,0,0,2130.959,865.835ZM1977.084,835c2.8-1.2,2,1.6,3.045,3.593.764,1.468-1.023,1.21-2.818,2C1976.521,837.61,1976.25,835.361,1977.084,835Zm-13.174-93.409c2.479,1.093,4.39-2.4,6.388-1.2s2.793-2,3.992-3.193,2.394,5.988,0,5.988-2,4.789-4.392,2.8-2,3.19-3.99,2.393-2.674.4-2.674.4l-1.807-8.3C1962.43,740.932,1963.317,741.33,1963.91,741.592Zm-10.452.4a7.724,7.724,0,0,0,.475-4.926s1.84.843,4,1.827l2.388,9.884h-2.4l-3.591-6.785Zm-1.623,47.9c-2.494.8-.7,1.2-2.695-.8-1.364-1.366-1.982-11.116-2.236-17.157.081,0,.155-.006.24-.006,2.794,0,3.992-1.2,4.392-3.2a17,17,0,0,0,0-6.386,1.76,1.76,0,0,0-.372-.92c.565-1.382,1.031-2.893,2.366-2.674,2.4.4,4.392,2.4,7.585,2.8s0,0,1.6,1.6-.8,4.39-3.011,3.992-1.779,2.394-3.375,1.6-2.394,2.4-3.593,4.394-2,1.594-3.593,3.191,2.8.8,4.39,2.795,5.587-2,6.042-1.6-.455,2.793-.055,4.791-1.595,1.994-4.39,3.591S1954.332,789.095,1951.836,789.894Zm12.876,71.054c-.206.3-.383.577-.538.824-1.313-.519-2.258-.824-2.258-.824s-6.787,1.2-4.391-1.6-5.987-5.988-2.4-5.988,2.4-2.394,3.593,0,2-.4,4.391,1.2a36.1,36.1,0,0,1,4.281,3.936A6.438,6.438,0,0,0,1964.712,860.948Zm13.971-3.2c-2,2.795,0,0-1.6-1.2s-2.4-.8-3.592,1.2a3.2,3.2,0,0,1-1.066,1.143l-6.12-6.728s-.8-3.594,1.2-4.392-5.189-4.791-3.992-5.8a6.056,6.056,0,0,1,2.793-1.784c2-.8,2-2,2-2,1.87.267,7.3,10.505,10.695,17.278a.214.214,0,0,0,.041.079c.1.193.193.383.285.569A2.437,2.437,0,0,1,1978.683,857.753Zm3.553-3.167c-.777-1.931-1.732-4.374-2.633-6.877a2.9,2.9,0,0,0,1.284-.333c3.006-1.6,2.584.8,4.979,3.194C1987.917,852.619,1985.286,853.792,1982.236,854.586Zm37.126-3.28s-3.2.019-2.782,2.013l.411,1.993s-.068,0-.182,0a.717.717,0,0,1-.2-.355,4.108,4.108,0,0,0-2-2.394,15.24,15.24,0,0,1,4.393-2,1.559,1.559,0,0,0,.8-.451C2020.065,850.823,2020.072,851.3,2019.362,851.307Zm10.016-79.767c-1.24.011-1.749-1.447-.61-3.032,1.58.89,4.431.23,6.464,1.665.063.044.116.088.176.134C2033.789,770.241,2030.468,771.534,2029.377,771.54Zm1.2,61.071c0-.248.944-2.389,1.748-4.346a1.8,1.8,0,0,1,.073.207,31.266,31.266,0,0,0,1.243,3.259A16.664,16.664,0,0,0,2030.574,832.611Zm5.59,19.956c-.333,1.995-1.776,1.218-3.634.211a4.44,4.44,0,0,0,.407-1.156,10.749,10.749,0,0,1,.52-1.778C2034.547,851.651,2036.5,850.533,2036.165,852.567Zm1.04-78.781c-.756-.482-1.75-.6-1.04-2.246a1.845,1.845,0,0,0,.133-.437A2.788,2.788,0,0,1,2037.2,773.786Zm12.134,84.125c-.388,1.6-3.6-.778-4.788.027a9.53,9.53,0,0,1-.852.476,3.446,3.446,0,0,1,2.045-1.059,26.493,26.493,0,0,0,5.3-2.029c.176.109.278.175.278.175A4.141,4.141,0,0,0,2049.339,857.911Zm57.966-116.426c2.153-.995,3.985-1.85,3.985-1.85a7.746,7.746,0,0,0,.506,4.924l-.873,0-3.551,6.807-2.4.013Zm-16.369-1.59c1.2,1.189,2.023,4.379,4.011,3.168s3.924,2.266,6.393,1.158c.6-.265,1.479-.668,2.477-1.128l-1.753,8.308s-.685-1.192-2.676-.381-1.624-4.383-4.006-2.371-2.014-2.781-4.408-2.768S2089.731,738.7,2090.936,739.9Zm-5.217,101.426c1.033-2,.217-4.793,3.019-3.613.836.355.578,2.606-.193,5.592C2086.745,842.526,2084.959,842.794,2085.719,841.321Zm-2.012,16.007c-3.059-.778-5.694-1.933-3.657-4,2.38-2.413,1.945-4.8,4.959-3.225a2.946,2.946,0,0,0,1.286.326C2085.409,852.942,2084.472,855.39,2083.708,857.328Zm9.834,4.249a3.233,3.233,0,0,1-1.071-1.136c-1.212-1.989-2.011-2.383-3.6-1.176s.426,3.989-1.588,1.207a2.428,2.428,0,0,1-.649-1.63c.093-.186.185-.376.282-.571a.2.2,0,0,0,.039-.081c3.359-6.793,8.724-17.064,10.586-17.339,0,0,.01,1.194,2.01,1.983a6.046,6.046,0,0,1,2.8,1.767c1.2,1-5.957,5.037-3.956,5.823s1.221,4.383,1.221,4.383Zm14.9.364c2.412,2.778-4.38,1.623-4.38,1.623s-.946.309-2.251.837c-.157-.246-.338-.516-.542-.823a6.447,6.447,0,0,0-2.7-2.433,36.056,36.056,0,0,1,4.256-3.961c2.388-1.61,3.2,1.178,4.385-1.224s0,0,3.593-.024S2106.033,859.16,2108.444,861.941Zm7.956-70.307c-1.982,2.008-.189,1.6-2.69.815s-.513-2.391-3.316-3.971-4.8-1.567-4.414-3.566-.529-4.387-.08-4.79,4.462,3.565,6.048,1.562,5.98-1.238,4.371-2.821-2.4-1.184-3.609-3.174-2.029-5.175-3.62-4.37-1.171-1.987-3.387-1.574-4.622-2.367-3.036-3.972-1.6-1.187,1.586-1.609,5.174-2.427,7.569-2.839c1.332-.231,1.809,1.28,2.384,2.657a1.767,1.767,0,0,0-.366.925,17.042,17.042,0,0,0,.04,6.386c.41,1.993,1.617,3.183,4.41,3.167.084,0,.161,0,.241.006C2118.315,780.506,2117.755,790.26,2116.4,791.634Z" transform="translate(-1933.624 -593.773)" fill="#45943e"/><path d="M2083.647,847.061s-2.865,8.928-7.152,14.514c-.584.763-.4,1.714.659,1.318s2.056-.714,1.489.106-4.127,3.458-3.467,4.116,3.347-1.054,2.86-.4-4.443,3.046-3.65,3.442,3.725-.661,3.379,0-5.095,4.086-4.966,5.01,2.59,1.318,3.036,1.45.9.714-.709,1.746c-.913.586-5.1,3.432-4.437,4.354a2.075,2.075,0,0,0,2.639.925c2.574-1.316,2.408-.831,2.97-.136s-3.369,5.464-5.411,7.575-3.627,2.374-2.439,3.3,2.507.133,2.9.661.266,1.318,1.451,1.052,1.322-.288,1.849.055-3.322,4.829-6.606,6.15-3.685,2.638-2.63,3.034c0,0-1.32,1.847.4,2.109s2.772-.4,3.431,0,0,1.189,1.454.792,1.846-1.583,2.769-.922,1.187,1.928,1.847,1.032c0,0-1.847,3.717-4.882,4.9a30.27,30.27,0,0,0-4.354,1.847c-.923.529-1.716,1.189-2.639,1.714s-2.638,1.189-1.98,2.114,2.244.791,2.9,1.185.133.926,1.451.926a10.694,10.694,0,0,0,2.9,0c1.19-.264,1.584.63,3.035.116s1.979-1.7,2.773-1.042-1.189,2.374-2.112,3.432-8.575,4.353-10.291,5.276-3.7,1.585-2.244,2.377,1.715.264,2.244,1.186,0,.923,1.32,1.321,2.506-1.06,3.3,0,.948.791,2.389.529a7.717,7.717,0,0,1,3.678.234c.924.29,2.113-.424,2.509,0s-11.328,5.181-14.363,6.369-4.749,1.716-3.827,2.375,1.583,0,2.375.922.925,1.451,1.979,1.451,1.453-.658,2.243,0,1.98,1.453,2.772,1.189,2.507-.427,2.9.051.528-.08,1.452,0a6.491,6.491,0,0,0,2.507-.711,14.952,14.952,0,0,1-5.937,3.034c-3.431.791-11.826,3.3-11.586,4.75s.9,1.056,1.822,1.584.793,1.321,2.111,1.451,1.318-1.188,2.506,0a5.332,5.332,0,0,0,3.308,1.846c.915,0,4.212-1.581,4.212-1.581s-2.11,1.979-1.187,2.374,1.451-.792,2.639,0,1.715,1.187,2.638,1.056,1.979.973,2.771.023a10.182,10.182,0,0,1,2.9-1.871s-.529,2.147,0,2.26.659-.245,1.714,0,5.128-1.13,5.788-.642,1.979.762,2.375.031,1.054,1.231,2.374.446,1.453-1.442,2.508-1.31,2.374.924,2.771.132-1.056-3.562-1.056-3.562,2.243,2.242,3.3,2.109.924-.526,1.979-.66,2.244.792,3.034-.132.264-1.714,1.583-1.714,2.9.791,2.9-.658-1.979-3.168-1.979-3.168,3.036,2.244,3.959,1.585.262-1.321,1.32-1.585,3.825,1.056,2.242-1.452-13.327-4.941-15.965-6.917c0,0,2.507.923,3.564,0s-.528-2.054.263-2.187,1.451,2.375,2.505,1.847.529-1.847,1.058-2.109.924,2.638,2.244,1.977l1.318-.658s3.7.529,2.771-1.583-13.457-6.2-15.437-9.234c0,0-.133.529,1.318.131s1.189-.791,2.64-.526.263,1.448,1.716.924a3.482,3.482,0,0,1,3.034,0c1.32.393,3.167,1.185,3.167-.263s-13.063-8.635-13.592-10.218a29.045,29.045,0,0,0,2.905.4c1.583.131.923.322,1.847.586a7.469,7.469,0,0,0,2.64.394c1.318,0,3.956.791,4.75-1.451s-4.487-1.187-7.257-2.9-5.673-2.905-6.2-3.565-2.376-1.714-1.981-2.109,2.508,1.055,3.826,1.318,1.981,1.583,2.9,1.187,1.056-1.187,2.244-.658,2.9,2.638,4.75,1.582,3.167-1.715.792-2.507-14.91-6.2-15.833-7.388c0,0,.527.527,2.11.263s1.849.132,3.167.4,2.244,1.713,2.9.924.924-1.32,1.715-.661,3.167,2.028,3.826,1.479,1.583-1.214-.263-2.4-8.181-5.146-9.236-6.335-2.64-1.507-3.167-2.826c0,0-.089-.647,1.492-.253s2.375,1.187,2.969.594-.461-3.5.133-2.146,1.385,2.336,2.176,1.743.595-.789,1.782-.4,2.147,1.74,2.147.751c0,0,2.088-.122,1.043-2.14s-7.452-5.475-8.442-7.256a32.324,32.324,0,0,0-3.3-4.487s.2.256,1.981.065-1.033.772,1.936.429c0,0-.2-.158.068-.774s.791.439,1.23.7.966.35.791-.529.264-1.056.616-.528.7,2.109,1.32,1.5-.353-1.407.352-1.759,1.306,1.67,1.306.086-8.018-4.993-9.513-7.194c0,0,.878.7,1.5,0s.351-1.936.968-1.407,1.1,2.43,1.275,1.639-.087-1.936.791-1.407,1.67,2.2,1.848,1.407c0,0,.174-.7.615-.616s.44.966.879.529-.353-1.233.264-.881,2.976,2.119,2.023.527c-1.672-2.791-7.081-4.716-8.225-5.6a1.414,1.414,0,0,0,1.583-.087c.7-.616.792-.175,1.5-.088s1.23.263,1.583-.265,2.2.265.7-1.23-7.653-4.4-7.917-4.926-.529-.7.263-.79.791.79,1.32.261-.177-.879.528-.529,1.011,1.557,1.362.854-.086-1.056.354-.7,2.755,1.471,2.066.55c-4.42-5.882-7.184-9.625-9.757-15.092C2085.43,844.558,2084.086,845.786,2083.647,847.061Z" transform="translate(-2024.137 -676.632)" fill="#2d734b"/><path d="M2449.948,856.183s-2.863,8.93-7.152,14.513c-.584.765-.4,1.716.659,1.32s2.057-.713,1.49.106-4.128,3.458-3.468,4.115,3.349-1.054,2.862-.394-4.445,3.046-3.652,3.44,3.727-.658,3.379,0-5.094,4.087-4.964,5.01,2.59,1.32,3.034,1.448.905.716-.708,1.749c-.914.587-5.1,3.43-4.437,4.355a2.074,2.074,0,0,0,2.638.922c2.575-1.315,2.41-.828,2.97-.136s-3.367,5.466-5.408,7.576-3.629,2.377-2.44,3.3,2.506.132,2.9.66.265,1.318,1.451,1.054,1.321-.291,1.847.053-3.321,4.828-6.606,6.149-3.682,2.638-2.628,3.033c0,0-1.32,1.847.394,2.112s2.774-.4,3.432,0,0,1.187,1.452.791,1.846-1.583,2.769-.924,1.188,1.93,1.848,1.031c0,0-1.848,3.719-4.881,4.9a30.525,30.525,0,0,0-4.354,1.851c-.923.528-1.714,1.187-2.638,1.714s-2.639,1.187-1.979,2.113,2.244.79,2.9,1.183.133.927,1.448.927a10.7,10.7,0,0,0,2.9,0c1.189-.263,1.585.628,3.036.118s1.979-1.7,2.771-1.045-1.187,2.377-2.111,3.432-8.576,4.354-10.292,5.279-3.694,1.582-2.242,2.374,1.714.265,2.242,1.187,0,.924,1.321,1.321,2.507-1.057,3.3,0,.947.791,2.387.528a7.786,7.786,0,0,1,3.681.234c.924.292,2.112-.423,2.507,0s-11.325,5.184-14.361,6.369-4.75,1.714-3.825,2.375,1.583,0,2.373.922.924,1.451,1.98,1.451,1.451-.659,2.241,0,1.981,1.452,2.774,1.189,2.5-.425,2.9.051.526-.08,1.45,0a6.532,6.532,0,0,0,2.507-.711,14.976,14.976,0,0,1-5.937,3.035c-3.429.789-11.825,3.3-11.586,4.749s.9,1.054,1.822,1.583.793,1.32,2.112,1.453,1.318-1.189,2.507,0a5.33,5.33,0,0,0,3.308,1.845c.915,0,4.21-1.583,4.21-1.583s-2.108,1.98-1.185,2.377,1.451-.793,2.638,0,1.716,1.187,2.638,1.055,1.981.974,2.771.026a10.206,10.206,0,0,1,2.9-1.874s-.53,2.148,0,2.262.658-.245,1.714,0,5.126-1.13,5.788-.643,1.978.759,2.374.029,1.055,1.233,2.375.448,1.451-1.443,2.506-1.31,2.376.922,2.771.13-1.054-3.562-1.054-3.562,2.244,2.242,3.3,2.112.923-.527,1.978-.661,2.245.791,3.036-.131.264-1.716,1.583-1.716,2.9.792,2.9-.659-1.977-3.168-1.977-3.168,3.034,2.244,3.957,1.587.264-1.322,1.32-1.587,3.827,1.057,2.244-1.451-13.327-4.939-15.964-6.919c0,0,2.505.924,3.563,0s-.527-2.05.262-2.183,1.452,2.374,2.506,1.845.53-1.845,1.058-2.11.922,2.639,2.243,1.979l1.318-.658s3.694.528,2.771-1.584-13.458-6.2-15.435-9.235c0,0-.133.529,1.318.132s1.188-.791,2.639-.528.264,1.451,1.716.925a3.483,3.483,0,0,1,3.033,0c1.32.4,3.168,1.186,3.168-.265s-13.063-8.631-13.592-10.216a28.464,28.464,0,0,0,2.9.4c1.585.131.925.32,1.847.585a7.434,7.434,0,0,0,2.641.4c1.319,0,3.956.792,4.749-1.451s-4.485-1.187-7.255-2.9-5.674-2.9-6.2-3.563-2.378-1.718-1.982-2.11,2.51,1.054,3.828,1.318,1.981,1.581,2.9,1.187,1.055-1.187,2.241-.658,2.9,2.638,4.749,1.581,3.168-1.716.792-2.506-14.91-6.2-15.833-7.389c0,0,.529.528,2.112.264s1.847.131,3.167.394,2.242,1.716,2.9.925.926-1.319,1.716-.659,3.167,2.026,3.827,1.475,1.583-1.212-.265-2.4-8.179-5.146-9.235-6.334-2.639-1.508-3.167-2.827c0,0-.09-.648,1.493-.252s2.376,1.187,2.967.593-.459-3.5.133-2.147,1.385,2.336,2.177,1.743.594-.79,1.783-.394,2.145,1.739,2.145.751c0,0,2.089-.123,1.044-2.139s-7.454-5.476-8.442-7.259a32.332,32.332,0,0,0-3.3-4.486s.2.256,1.98.065-1.032.774,1.938.43c0,0-.2-.159.066-.775s.792.44,1.23.706.968.35.792-.529.263-1.056.617-.529.7,2.112,1.318,1.5-.352-1.406.351-1.758,1.309,1.67,1.309.086-8.019-4.993-9.513-7.194c0,0,.881.7,1.495,0s.35-1.934.967-1.407,1.1,2.43,1.277,1.638-.087-1.933.791-1.406,1.671,2.2,1.847,1.406c0,0,.177-.7.615-.615s.44.968.882.529-.353-1.232.262-.881,2.977,2.119,2.024.528c-1.673-2.79-7.081-4.717-8.225-5.6a1.412,1.412,0,0,0,1.583-.088c.7-.615.791-.176,1.5-.086s1.231.263,1.583-.265,2.2.265.7-1.23-7.655-4.4-7.917-4.926-.529-.7.261-.791.793.791,1.322.262-.178-.879.527-.528,1.011,1.556,1.363.852-.088-1.057.353-.7,2.756,1.472,2.066.554c-4.421-5.883-7.185-9.628-9.756-15.094C2451.732,853.679,2450.389,854.909,2449.948,856.183Z" transform="translate(-2298.279 -683.459)" fill="#2d734b"/><g transform="translate(198.68 157.126)"><path d="M2719.582,798.09l0,.007a.009.009,0,0,1,0,.006A.056.056,0,0,0,2719.582,798.09Z" transform="translate(-2719.574 -798.09)" fill="#c87152"/></g><path d="M2131.438,1214.714c-.628-1.19.077-1.19-.479-3.626s1.086-2.844.671-4.468.7-3.657-.671-5.688.963-2.845,0-5.28a7.448,7.448,0,0,0-.811-1.475c-4.374.854-12.372,2.464-18.467,3.959-8.834,2.164-14.274,6-21.033,6.523s-19.624,1.059-27.274,3.767-13.5,5-16.534,6.29a4.829,4.829,0,0,1-.455.162c-5.969-2.089-12.088-4.042-17.1-5.368-3.584-.946-8.046-2.285-13.009-3.757-.169-2.08-.479-4.187-1.048-4.171-1.119.029-6.057,1.9-7.988,0s-3.006-6.082-3.865-5.707-6.225-1.232-9.23,0-3.116-.476-3.116-.476-7.187-3.376-12.552-3.41-5.152-.892-6.011-1.109-7.118,1.5-8.494,0a10.438,10.438,0,0,1-1.981-3.218s-8.2.214-11.632,0-4.3-1.48-6.655-3.208-3.575-2-5.651-1.33c-.808.263-1.812.635-2.842.949.717.906,2.382,1.447,2.714,2.575.476,1.627-.072,2.437-.685,2.913-.514.4.263,1.514.569,2.582-.33.051-.649.108-.953.171-.689,1.721-1.3,4-1.846,5.37-.814,2.03,2.435,2.437,2.915,4.062s-.072,2.438-.685,2.913.613,1.962.685,3.179,1.553,2.437,0,3.658-.072,2.843.642,3.22,1.318,2.873.387,3.206.118,4.136,0,6.09,2.551,2.107.785,3.915,0,5.381,0,5.381h191.218s.963-5.567,0-6.988.192-3.042.428-4.262a15.388,15.388,0,0,0-.428-4.136S2132.067,1215.9,2131.438,1214.714Z" transform="translate(-1933.624 -928.869)" fill="#00211c"/><g transform="translate(1.254 297.447)"><path d="M2284.657,1365.451s-24.771.474-26.063-.09,1.907-4.1,4.115-6,10.1-5.283,13.206-2.464l3.243,2.749S2284.235,1361.594,2284.657,1365.451Z" transform="translate(-2176.926 -1355.82)" fill="#2d734b"/><path d="M1949.6,1363.286s-2.532,1.255-7.342.754a13.537,13.537,0,0,0-2.912-.317c-1.137.072-3.037.433-4.048,0s0-4.407,1.137-4.827,2.28.676,3.166,0,2.955-2.939,4.348-3.067a5.114,5.114,0,0,1,3.547,1.319C1948.76,1358.2,1950.1,1361.752,1949.6,1363.286Z" transform="translate(-1934.879 -1355.815)" fill="#2d734b"/><path d="M2655.26,1373.469a10.927,10.927,0,0,1-5.569.572,10.369,10.369,0,0,0-2.209-.243,8.168,8.168,0,0,1-3.073,0c-.767-.329,0-3.341.865-3.659s1.73.511,2.4,0,2.244-2.231,3.3-2.325a3.87,3.87,0,0,1,2.691,1C2654.625,1369.611,2655.645,1372.306,2655.26,1373.469Z" transform="translate(-2465.659 -1364.787)" fill="#2d734b"/><path d="M2379.887,1369.469a32.043,32.043,0,0,0,12.513,0,4.648,4.648,0,0,0-2.785-3.495,5.287,5.287,0,0,1-2.678-1.541c-.845-.6-3.384-1.263-4.513.128S2379.887,1367.769,2379.887,1369.469Z" transform="translate(-2267.925 -1361.745)" fill="#2d734b"/></g></g><g transform="translate(1790.674 202.313)"><path d="M1848.053,420.879c-2.659-.321-9.627-7.3-9.627-7.3l.247-2.212s-2.7-3.685-2.213-4.669,1.231.247,1.274.492,1.678-.984,2.906-1.571-1.229,1.571-.247,3.3,1.475-1.234,3.189-1.971,2.464-.983,3.2-1.326-.246-3.1-1.721-2.853-3.193-1.23-3.193-1.23a6.536,6.536,0,0,1-4.134-1.228c-2.171-1.474-1.764-1.721-1.764-1.721l-1.474-4.668-1.229,2.053s.246-3.037-1.229-3.037-.983,1.475-1.475.738a5.171,5.171,0,0,0-2.7-1.721c-.984-.245-2.949.491-4.178.737s-2.212-.489-2.949,0,.985.984,1.721,1.721-.491.983-1.476,1.562-1.719.65-2.455,1.141-4.425-.982-5.654-1.141.248,2.615.248,2.615-2.7-.983-3.933,0,2.212,1.721,2.212,1.721a8.758,8.758,0,0,1-3.195,1.228c-1.719.246-1.229.739-1.719,1.967s-2.212.737-3.443.983-1.228.983-1.228,2.458,2.949,1.971,2.949,1.971h2.95s5.159-4.675,6.142-4.675-2.457,3.2-1.967,4.675,3.44-1.726,3.44-1.726,2.95-1.967,4.18-2.7,1.964,1.132,1.964,1.132-2.947,1.571-1.964,2.063,1.228-.737,3.193-.984,2.212.245,3.441.737,5.9,2.948,6.881,4.178,6.143,9.093,7.126,10.321,6.635,4.916,7.373,6.145.491,12.778.491,14.007.246,15.238.246,15.238,0,22.607-.246,26.54-1.229,16.22-1.719,22.119-5.652,17.446-5.652,17.446h17.939s-.984-8.6-1.228-11.06,0-21.869,0-21.869V454.377a76.159,76.159,0,0,0-1.229-14.007c-.738-3.442-.984-18.678-1.231-19.491s.045-13.272.045-13.272c.164-1.145,7.372-8.846,7.372-9.337s-.328-1.31-1.147-1.228-4.424,3.85-4.752,3.357.491-3.768.328-4.424-.519-11.488-1.175-11.979c1.57-2.124,3.34-4.5,4.107-4.981,1.31-.819,1.965-1.8,3.44-2.457s1.31,1.638.491,1.8-.984,1.475-1.638,2.621-1.638.82-2.785,1.475-1.148.983-.492,2.458,3.114.163,4.261,0,2.295.982,3.6,1.31.656-.983,1.475-1.31,1.147.49,2.619.327-.326-.82.658-1.148,3.44.984,4.914,1.311,2.737-.49,2.737-1.637-.936-.984-.936-1.966-1.145-1.311-2.129-1.475,0-1.8,1.148-2.13.654-1.31.49-2.458-1.311.328-1.8.164-.657-.818-1.637-1.146-1.638,1.146-2.621.819-1.312,0-1.312-1.474-3.277-.491-3.767-.82,2.456-1.8,2.785-2.785-.821-.163-1.311-.491.654-1.474,1.146-2.294-1.31,0-1.8,0,.819-1.31,1.308-2.13-1.8-.164-2.62.492.819-.656,1.474-2.131c.278-.626-.094-1.047-.678-1.321,1.279-1.427,2.52-2.911,2.809-3.1.49-.328,1.309-2.622,2.621-2.131s2.129-.982,2.295-.164a5.5,5.5,0,0,0,.819,2.295c.49.655-1.639,2.785-2.131,3.111s-.983,1.967-.164,2.294a10.217,10.217,0,0,0,3.933,1.149,11.6,11.6,0,0,0,4.26-.985c1.311-.491,0-2.13.328-2.621s5.242-.328,6.389,0,2.785.491,3.44-1.145c.2-.5-.074-.831-.524-1.048,1.4.348,4.534,1.335,5.112,1.048.656-.325.984-.493,2.457-1.149s.328-2.294.985-1.966-.492,1.147.327,3.115,4.1-.985,5.9-.656,1.148-.821,1.312-1.638-.164-.82-.982-1.148-1.8-.328-1.968-1.309,0,0-.491-.656-1.8-.163-1.8-.163,1.474-.657,1.148-1.939-1.966.627-2.295-.191,0,0-.819-1.234-2.949,1.424-2.949,1.424a1.8,1.8,0,0,0-.82-2.157c-1.311-.654-1.966.819-3.276,1.474s-3.441.328-2.949-.741c.124-.272.048-.421-.123-.488a10.123,10.123,0,0,0,1.925-1.72c.819-.983-.819-1.474-1.8-1.31s-1.476,0-1.476-.984-1.145.492-2.293,0-1.473,1.965-1.966,2.294-1.967.821-2.129.329,1.147-2.295,1.309-2.787a1.716,1.716,0,0,1,2.621-.983c1.8.819,3.933-.982,4.1-.491s1.309.491,1.966.164,2.129.818,2.293,1.31,1.8,1.311,2.621,1.475a.641.641,0,0,0,.819-.655s1.311,1.309,2.295,1.146,0-1.8.655-1.474a22.51,22.51,0,0,0,4.261,1.146c1.147.165,2.783-.818,3.6-1.474s-1.145-.983-1.473-1.474-1.638-.655-1.148-.983a1.444,1.444,0,0,0,.328-1.966c-.493-.82-2.621.328-2.621.328a2.4,2.4,0,0,0-.328-1.966c-.655-.82-2.621,0-2.621,0s.654-1.147.164-1.639-2.295.657-2.295.657l.328-1.312c-.328-.983-3.932-.819-3.932-.819.819-2.458,2.131-2.785,2.459-2.131s.819.164,1.966.655,3.931,0,4.751.985,3.768.655,5.079-.328-1.147-1.147-1.475-2.129-2.457-.493-2.457-.493.821-1.8,0-2.785-2.785-.491-2.785-1.309-1.148-1.8-1.474-2.622-1.311-.655-2.459-1.148-1.965.656-3.785.329-1.621,1.473-2.6,1.966-1.638-.164-2.784-.164-1.639,2.13-1.149,3.112,1.149-.328,2.131,1.638,4.407-.326,4.407-.326a24.451,24.451,0,0,0-1.786,3.275c-.326.985-3.112.164-3.112.164a7.586,7.586,0,0,0-2.295-.819,1.6,1.6,0,0,0-1.638.819,4.477,4.477,0,0,0-2.621-.983c-1.473,0-.983,2.622-.983,2.622-.983-.656-1.638.491-2.457,1.311s-1.476.655-2.621.82a7.535,7.535,0,0,0-2.621,1.145c-.984.493.983,1.313,1.309,2.3s1.148-.164,1.966-.164,1.262-.818,2.131.328,2.621.163,2.621.163-4.426,8.028-5.571,8.876-2.13-1.424-2.13-1.424a3.661,3.661,0,0,0,2.13-1.06c.983-.984-.328-1.968-.82-2.622s-1.31.654-2.131.654a2.935,2.935,0,0,1-2.455-1.638c-.657-1.146-1.8.984-2.294,0s0,0,.654-.655-.983-1.474-1.147-2.131-.982-.82-.491-1.146,1.474-.328,2.131-.82-.492-.82-.819-1.8-1.148-.327-2.457-.164,0-1.475,0-1.475c.819-.327,3.111-1.8,2.619-3.441s-1.8,0-2.785-.655-1.636,0-2.783-.164-.984,1.147-1.148,1.8-.164.984-.819,1.311-.655-1.966-.492-2.62,1.638-1.8,2.295-2.786,1.8-1.965,3.114-.656,2.457,1.476,3.111.82,1.474,0,2.621.327,1.8-1.148,2.293-1.8,1.313.655,1.64,1.967.655-1.148,1.473-1.967,2.131.164,2.459,1.967,2.295.328,3.6.164,1.968-1.8,2.459-2.948,1.965-2.131,1.637-3.607-1.145,0-2.785,1.148a4.02,4.02,0,0,1-4.588-.327c-.49-.656-2.014-.164-2.785-.984s-.164-1.309.82-2.293a1.452,1.452,0,0,1,2.459.163c.654.821.328,1.639,1.965,2.13s1.638-.656,1.638-1.966a12.783,12.783,0,0,1,.326-2.458c.164-1.31-1.8-.164-2.621-.491s-1.8-1.966-1.145-2.786,1.965,0,3.93.657,1.312-.983,2.131-1.638,3.112-.655,5.707-.163.027-.985,0-1.8-2.922-.163-4.4-.818.492-.821,3.115-.657.49-.819,0-2.13-1.15-.655-2.295-.819-4.262,0-3.933-.656,1.966-.655,2.293-2.216-3.111-2.043-4.587-2.949,0,0,1.147-1.388-.819-1.311-1.638-1.638-3.6.163-4.145-.656,1.523-1.31,1.031-2.621-1.474-1.8-3.271-1.8-1.807.983-2.626.326,2.785-1.966,2.621-3.277-3.276-2.13-4.916-2.621-1.8,1.8-3.441.819,0,0-.983.164-.162,2.294-.819,3.442-1.474.491-2.785.326a31.623,31.623,0,0,0-3.931,0c-1.312,0-1.149.164-1.149-.655s1.311-.49,2.623-.654,1.309-1.312,2.621-.984,1.473-.656,1.311-1.966-1.968-.983-2.56-1.8.1-1.966-.717-2.949-2.293,0-3.278,0a6.722,6.722,0,0,0-2.784,1.147c-.983.492-.328,1.146-.492,2.129s-1.145.657-2.458.984-2.292,1.31-1.8,2.13.655,2.621-.164,3.112-1.148-.654-1.8-1.147-1.638.655-2.785.984-1.312.328-1.638.984.819,1.8,1.31,2.785-1.148,1.338-1.148,1.338c-1.309-.79-2.129-.028-4.094,0s-1.31.955-2.95.791-2.13,1.311-2.621,1.8.164,1.474.328,2.383,1.146,2.039.327,1.875-1.636.492-2.457.723-1.638,1.243-3.276,1.735a2.66,2.66,0,0,0-2.115,2.672c0,1.034-2.965,1.1-4.6,1.588s-1.148,2.293-.655,3.6,1.965-2.294,2.785-.655,3.6-.163,5.079.327,3.276,0,2.457.985-2.293.49-3.6,1.146-.326,1.147.657,2.131,1.966-.327,3.6-.491,2.947-.164,3.6,1.146,1.8.82,3.276.328,1.311.491,2.457,1.8c.826.941,1.989-.658,2.578-1.631a7.677,7.677,0,0,0,1.354,3.432c.668,1.145,1.225,1.206,1.7.763.342,1.087.748,2.4.924,3.005.326,1.147-.164.984-1.476,2.13s.164,1.476,0,2.458-1.311,1.638-2.294,2.13-2.785.655-2.293,0a6.54,6.54,0,0,0,1.147-2.949c0-.82-1.311-.657-1.475-1.475s0-1.147-.818-1.8-1.966-.655-3.442-.491-1.148,1.639-2.131,1.147,0-2.62-1.31-3.277-1.966.657-2.949,1.148-.49,1.309-.656,2.129-1.145,1.474-1.472.656-2.443-1.8-3.932-1.312-.655,2.785-.655,2.785c-1.311,0-1.311.492-2.949.983s-1.311,1.8-3.114,1.194-1.473,1.428-2.949,2.411-.983.984-.328,3.546,1.311,1.206.985,2.19-2.131.655-3.606.655-1.474-1.147-3.768-2.131-3.6,1.8-6.062,1.8-2.949,1.31-3.113,1.8-4.26,2.131-5.734,2.294-4.258,2.294-4.587,4.26,3.932-1.146,2.457.82-1.638,2.293-1.31,3.6,2.785-.82,2.293.982,3.276,0,4.588.821,2.293-2.13,2.949-1.311,4.26-2.294,4.26-2.294a24.814,24.814,0,0,0-1.312,2.784c-.49,1.312,2.131.163,3.443.163s2.293-1.965,3.112-1.636,4.752-3.113,5.244-3.113-1.64,1.8-2.13,2.949-.491,1.8.328,1.474,1.8-.163,3.931-.163,0,0,1.311.983,1.148-1.147,2.621-1.474,2.786.655,4.752,0-.492-1.639-1.147-2.294,0-1.475,1.981-.656a3.142,3.142,0,0,0,3.425-.819s6.717,2.293,7.537,2.785-1.31.984-2.131.82-.983.655-1.147,1.453-2.293.185-3.6.021-1.8.656-2.295,1.967.82,1.965-.49,2.293-2.131-.163-4.262,0-4.751.164-6.553.984-.982,1.146-.162,2.293,1.309-.49,1.145,0a2.823,2.823,0,0,0-.328,1.7c.166.716,1.476.43,3.114.1s2.295.165,2.785.983,5.244,2.458,5.244,2.458a52.02,52.02,0,0,1-7.076-1.363c-2-.708-2.591.052-3.738,0s-.655.541-1.31.871-1.8,0-2.949-.656-1.311.327-1.8,1.147a2.942,2.942,0,0,1-2.621,1.967,15.454,15.454,0,0,0-6.554,3.277c-1.311,1.31-1.475,1.8-.164,2.785s0,0-1.147.656-1.474,2.13-2.621,3.6.164,1.638,1.311,2.294,5.571-2.294,5.571-2.294a6.5,6.5,0,0,0-1.311,3.6c-.163,2.294,6.063-1.311,6.881-1.966s.82.164.984.82,3.725-2.458,3.725-2.458a3.625,3.625,0,0,1,.043,2.023c-.328.878,1.31,1.746,2.129,1.091s2.949-.82,3.114,0,2.293,1.473,3.931.819,2.295-1.8,4.1-.819,8.356-1.639,9.775-.983a15.337,15.337,0,0,1,4.313,3.932c.328.655-.817.655-1.965.984s-1.472.819-2.348.983-3.55.982-3.222,2.129,2.131,1.639,3.222,1.475,1.858-.491,2.676.982,3.114,0,3.114,0,3.623,7.457,3.13,10.243c-.031.188-.065.408-.1.655C1849.332,409.574,1850.714,421.2,1848.053,420.879Zm-6.415-45.839a2.41,2.41,0,0,1-1.139,1.028c-1.475.655-.821,1.8-.821,1.8s-1.8-2.131-3.034-1.908c-.665.119-1.492-.669-2.268-1.342.033.479-1.291-2.058-1.989-1.5-.717.574-.369,1.8.146,2.887.108.792.105,1.589-.555,2.028-1.472.983-1.8,1.967-3.44,2.621s-2.62.657-3.769,0,.492-1.965,2.459-2.784,3.769-.821,4.916-1.637a2.1,2.1,0,0,1,.389-.228c-.134-.984-.442-1.959.1-2.23.453-.228,1.079.267,1.743.845a.659.659,0,0,1,.06-.3c.326-.76.655-1.7,1.147-1.369a7.486,7.486,0,0,0,2.149.492,3.306,3.306,0,0,1,1.8-1.475c.965-.357,1.536,1.574,2.1,3.068.316-.519.484-1.006,1.154-1.1.065-.011.125-.018.181-.024-.58-1.158-1.328-2.434-1.328-2.434a4.429,4.429,0,0,1,1.936.163c.952.327,3.144-1.147,4.453-.82s.985,1.474,0,3.009-1.147.105-1.8.057a5.257,5.257,0,0,0-1.8.048c-.772.153-.527-.129-1.458-.024C1843.431,374.829,1842.628,372.5,1841.638,375.04Zm7.216,10.2c0,.983-.491,4.424-1.31,5.405s-4.752-5.405-4.752-5.405.163-.82.82-.656.492-2.295,1.637-1.8.984-2.294,1.638-.655.985-.655,1.966,0S1848.854,384.259,1848.854,385.243Zm10.7-58.688a23.491,23.491,0,0,0,2.736,1.835c.982.491,0,2.131-1.638,3.277s-4.425,4.1-3.961,3.441.357-3.6,1.173-5.079A24.056,24.056,0,0,0,1859.553,326.556Zm.735,26.2c-.66,1.71-1.684,4.03-2.587,4.63-1.475.984-.49-1.637-.164-2.294s1.146-2.95,2.13-2.707A1.413,1.413,0,0,1,1860.289,352.76Zm-4.838-28.653c.786-.437,1.376-.695,1.431-.3.068.467.818,1.235,1.749,2.014-1.148,1.239-2.811,4.126-3.059,4.375C1855.406,330.36,1855.407,327.227,1855.45,324.107Zm-4.3,1.172c.2.443.64.508,1.188.374.2,4.218.548,8.571.285,8.309-.428-.427-2.268-5.567-2.739-6.9C1850.4,325.739,1850.79,324.489,1851.149,325.278Zm4.259,53.738c-.457.526-1.15,1.441-1.852,2.458-.681-.951-1.26-1.8-1.26-1.8a9.345,9.345,0,0,1,1.31-1.965c.656-.657.164-1.639,1.311-2.295a13.461,13.461,0,0,0,2.119-2.05C1856.657,375.308,1856.184,378.133,1855.407,379.016Zm5.244-3.767c-.328.984-1.311.984-1.968.984-.529,0,.012-3.638.239-5.033.8-.952,1.4-1.686,1.4-1.686s.328,1.8.491,2.785A6.027,6.027,0,0,1,1860.651,375.249Zm7.209-22.86c-.819.731-.164,1.234-.328,2.214s-.819.492-1.474,1.149.818,2.129.491,3.112c-.289.863-3.1,2.1-3.782,2.395a4.6,4.6,0,0,1-.642-1.085c-.492-1.149-.983,1.475-2.457,1.149s-1.64,5.4-2.621,5.4.326-1.8-.328-2.457-2.785,2.131-2.295.655a12.988,12.988,0,0,1,4.1-4.916c.873-.58,2.205-3.691,3.149-6.131a1.219,1.219,0,0,0,.62-.066c1.31-.466-.164-.847,2.129-1.424s2.131-3.028,3.114-3.028S1868.678,351.656,1867.86,352.389Z" transform="translate(-1790.674 -287.813)" fill="#001f1b"/><path d="M2038.546,788.956s18.676-16.957,21.133-17.94h2.95s-16.477,17.427-22.854,25.065C2039.774,796.081,2037.808,792.4,2038.546,788.956Z" transform="translate(-1976.058 -649.444)" fill="#001f1b"/><path d="M2079.474,700.3s-3.321,1.245-2.63,1.8,1.288-.138,1.269.554-1.872,1.013-1.363,1.613,1.158-.877,1.317,0-2.558,1.986-1.406,2.126,2.259-.831,2.813-.97.512.563.553.982a1.627,1.627,0,0,0,2.353,1.095c1.522-.693,1.856-1,1.829.192s-.444,2.022.94,1.467,1.937.554,2.907.969,1.659.555,2.076,0,1.244-.1,1.938.366,1.8,1.058,1.659,0,.417-1.055,1.247-1.747a1.359,1.359,0,0,0,0-2.215c-.692-.554-1.385-.151-1.8-.836s1.244-.921.831-1.427-1.662-.781-1.385-1.473,1.522-2.078,2.215-1.661,2.213,1.8,2.629.553a2.177,2.177,0,0,0-.691-2.185s1.8,1.77,2.353,1.077,0-.77.83-1.077.69.523,1.383.662,1.8-1.325,2.215-.662-1.245,1.492-1.107,2.462.547,0,1.172.415.622,1.15,0,1.889.072,1.691,1.458.94,2.767-1.956,2.767-.94-2.352,2.678-1.107,2.54,2.907-1.245,2.907-.831-.832,2.492,0,1.8,1.8-2.492,2.214-1.8.553,2.077,1.384,1.108.137-2.371,1.522-1.877,3.737,2.43,3.6,1.184-1.523-2.075-1.246-2.768,2.076,1.981,2.629.644.277-2.306.833-2.443.691.692,1.521.692.97-.968,1.246-1.522.554.138,1.385-.277,1.105-.078.831-1.215,2.213-1.554,1.107-2.245.277-1.938-1.384-1.524-1.385,1.663-2.077.969-.139-.995-1.246-1.05-2.076-.637-2.906,0-1.245,1.189-1.522.359-1.108-1.449-1.8-.655,1.247-2.39,1.661-2.529.417-.83,1.245,0,1.107-.251,1.94-.4,1.66-1.537,2.213-.844.83,2.354,1.385,1.522.553-.553,1.384-.969.571.307,1.392-.746,1.1,1.052,2.067,0,1.663-2.852,0-2.992-2.213.831-2.628,0a3.351,3.351,0,0,0-1.938-1.938c-.97-.276-2.908,1.523-3.183.693s2.353-3.183.554-3.046a6.036,6.036,0,0,0-3.046.693c-.692.415,1.245-2.491-.139-2.077s-2.49,2.907-3.044,2.353.277-3.4-.83-2.393-3.044,3.085-3.321,2.256-.417-2.078-1.247-.969-1.521,2.353-1.245,3.046-.139.83-.691.691,0,.553-.693.692-.692-.692-.968-1.107,0-2.352-.831-1.937,2.767-1.246,1.245-2.076-.968-2.171-2.353-.809-1.384,1.778-2.629,1.226.691-2.372-1.661-1.809-3.323.424-3.183,1.669.83,2.215-.277,1.939.415-2.63-2.076-1.8-1.11,3.6-.97,4.29,1.938.415,1.661,1.384-.831.831-2.213,1.246a1.7,1.7,0,0,0-.831,2.63c.552.415,1.106,3.046-.14,2.629s.554-1.936-1.107-2.076-2.906,1.245-3.045,0,.826-3.6-.763-2.214.21,3.459-1.037,2.906-1.8-2.768-2.353-1.661.969,2.492-.138,2.214-1.8-1.384-2.628-.83-.417,1.245-1.11,1.52-1.245-1.661-2.213-.552-2.877.831-1.576,2.215-.794.138-.439,1.384S2079.474,700.3,2079.474,700.3Z" transform="translate(-2004.135 -582.655)" fill="#001f1b"/></g><g transform="translate(1940.148 239.766)"><path d="M2464.343,545.478c-.028-.22-.058-.42-.088-.589-.439-2.5,2.814-9.2,2.814-9.2s2.061,1.325,2.8,0,1.422-1.03,2.4-.884,2.6-.295,2.895-1.325-2.109-1.766-2.895-1.913-1.079-.589-2.109-.884-2.061-.295-1.767-.884a13.859,13.859,0,0,1,3.876-3.533c1.277-.589,7.164,1.767,8.782.886s2.208.144,3.681.734,3.385,0,3.532-.734,2.061-.591,2.8,0,2.208-.193,1.913-.98a3.262,3.262,0,0,1,.039-1.818s3.2,2.8,3.347,2.207.147-1.324.884-.736,6.33,3.829,6.183,1.768a5.847,5.847,0,0,0-1.177-3.239s3.972,2.648,5,2.06,2.208-.736,1.179-2.06-1.325-2.65-2.357-3.238-2.208.294-1.029-.589,1.029-1.324-.149-2.5a13.908,13.908,0,0,0-5.887-2.944,2.642,2.642,0,0,1-2.355-1.767c-.441-.735-.589-1.619-1.62-1.029a3.265,3.265,0,0,1-2.65.589c-.588-.295-.145-.826-1.176-.781s-1.566-.64-3.359,0a46.715,46.715,0,0,1-6.356,1.224s4.269-1.471,4.71-2.206,1.031-1.177,2.5-.884,2.648.551,2.8-.091a2.526,2.526,0,0,0-.293-1.527c-.148-.441.293,1.031,1.031,0s1.47-1.325-.149-2.061-3.975-.735-5.887-.884-2.649.295-3.829,0,0-.883-.44-2.061-.883-1.914-2.06-1.765-3.092.7-3.239-.02-.293-1.452-1.031-1.305-2.647-.3-1.911-.737,6.771-2.5,6.771-2.5a2.819,2.819,0,0,0,3.076.736c1.78-.736,2.37,0,1.78.589s-2.8,1.471-1.029,2.062,2.945-.295,4.269,0,1.177,2.208,2.354,1.325-.736-.884,1.177-.884,2.8-.148,3.533.146.736-.295.294-1.325-2.355-2.65-1.914-2.65,3.975,3.092,4.712,2.8,1.618,1.473,2.8,1.473,3.533,1.03,3.092-.147a22.168,22.168,0,0,0-1.178-2.5s3.237,2.8,3.826,2.06,1.472,1.915,2.652,1.178,4.562.883,4.121-.736,1.766.294,2.06-.883.147-1.472-1.177-3.239,2.5,1.031,2.207-.735-2.8-3.682-4.12-3.828-5.006-1.619-5.153-2.061-.589-1.618-2.795-1.618-3.388-2.5-5.447-1.621-2.061,1.915-3.386,1.915-2.944.295-3.239-.589.295.337.884-1.966,1.032-2.3-.295-3.186-1.03-2.714-2.65-2.166-1.325-.631-2.8-1.072-1.472-.883-2.649-.883c0,0,.751-2.061-.589-2.5s-3.238.441-3.533,1.177-1.179.147-1.325-.589.295-1.472-.589-1.913-1.472-1.619-2.65-1.031-.295,2.5-1.178,2.944-.587-.884-1.911-1.031-2.358-.145-3.094.442-.587.884-.734,1.619-1.325.59-1.325,1.326a5.878,5.878,0,0,0,1.031,2.65c.441.588-1.178.441-2.063,0s-1.913-1.031-2.06-1.914,1.178-1.178,0-2.207-1.621-.885-1.325-1.916c.157-.547.522-1.722.831-2.7.425.4.925.345,1.525-.684a6.846,6.846,0,0,0,1.217-3.083c.529.874,1.575,2.311,2.316,1.464,1.031-1.177.882-2.06,2.208-1.619s2.354.884,2.943-.294,1.767-1.177,3.239-1.031,2.355,1.325,3.238.441,1.767-1.325.589-1.912-2.5-.147-3.238-1.031.884-.441,2.208-.884,3.826,1.178,4.564-.294,2.061,1.766,2.5.588.885-2.8-.588-3.239-4.137-.5-4.137-1.426a2.388,2.388,0,0,0-1.9-2.4c-1.474-.442-2.208-1.35-2.945-1.56s-1.472-.8-2.208-.649.147-.869.295-1.684.736-1.7.294-2.144-.883-1.765-2.355-1.618-.883-.684-2.648-.711-2.5-.71-3.681,0c0,0-1.472-.319-1.03-1.2s1.472-1.913,1.177-2.5-.441-.59-1.472-.885-1.914-1.324-2.5-.884-.883,1.472-1.619,1.032-.589-2.062-.146-2.8-.443-1.621-1.621-1.915-2.061,0-2.208-.883.443-1.472-.442-1.913a6.031,6.031,0,0,0-2.5-1.031c-.882,0-2.207-.883-2.943,0s-.116,1.913-.647,2.65-2.15.441-2.3,1.62,0,2.06,1.177,1.765,1.177.736,2.356.883,2.354-.147,2.354.589.147.59-1.029.59a28.289,28.289,0,0,0-3.535,0c-1.175.147-1.912.735-2.5-.294s.146-2.945-.736-3.092.589-1.03-.884-.148-1.619-1.176-3.09-.735-4.269,1.177-4.418,2.355,3.091,2.357,2.355,2.944-.745-.295-2.36-.295-2.5.443-2.937,1.62,1.411,1.62.925,2.355-2.987.3-3.722.589-2.5.226-1.475,1.472,2.357.435,1.032,1.248-4.416,1.247-4.122,2.649,1.766,1.4,2.061,1.991-2.5.441-3.533.59-1.618-.442-2.061.735-2.354,2.061,0,1.914,4.124,0,2.8.589-3.922,0-3.948.735-2.331,2.061,0,1.62,4.39-.441,5.125.147.149,2.06,1.914,1.472,2.944-1.326,3.531-.589-.293,2.208-1.029,2.5-2.5-.735-2.355.442a11.342,11.342,0,0,1,.294,2.207c0,1.178,0,2.208,1.472,1.768s1.177-1.178,1.767-1.914a1.3,1.3,0,0,1,2.208-.147c.884.884,1.429,1.325.736,2.062s-2.061.294-2.5.883a3.61,3.61,0,0,1-4.122.294c-1.472-1.031-2.208-2.355-2.5-1.031s1.031,2.208,1.472,3.239,1.031,2.5,2.208,2.649,2.944,1.472,3.238-.146,1.472-2.5,2.208-1.767,1.031,2.945,1.324,1.767,1.032-2.356,1.472-1.767,1.03,1.914,2.061,1.621,1.766-.885,2.355-.3,1.619.442,2.8-.736,2.208-.293,2.8.59,1.915,1.914,2.061,2.5.147,2.649-.441,2.355-.589-.589-.736-1.178,0-1.764-1.032-1.618-1.618-.442-2.5.147-2.061-.884-2.5.588,1.62,2.8,2.356,3.092c0,0,1.178,1.472,0,1.324s-1.914-.735-2.208.148-1.324,1.177-.736,1.619,1.472.441,1.913.736-.295.44-.441,1.03-1.619,1.325-1.031,1.914,1.031-.295.589.589-1.472-1.031-2.061,0a2.644,2.644,0,0,1-2.208,1.472c-.736,0-1.47-1.179-1.914-.59s-1.618,1.471-.736,2.355a3.282,3.282,0,0,0,1.914.953s-.884,2.04-1.914,1.28-5-7.974-5-7.974,1.576.884,2.355-.147,1.176-.294,1.913-.294,1.472,1.031,1.766.146,2.062-1.618,1.178-2.06a6.762,6.762,0,0,0-2.354-1.03c-1.031-.148-1.619,0-2.355-.737s-1.325-1.766-2.208-1.176c0,0,.44-2.356-.882-2.356a4.023,4.023,0,0,0-2.356.885,1.44,1.44,0,0,0-1.472-.737,6.787,6.787,0,0,0-2.061.737s-2.5.734-2.8-.148a21.863,21.863,0,0,0-1.607-2.944s3.077,2.061,3.961.3,1.472-.59,1.913-1.473,0-2.8-1.031-2.8-1.618.589-2.5.146-.706-2.06-2.341-1.766-2.369-.736-3.4-.294-1.913.294-2.207,1.03-1.325,1.62-1.325,2.355-1.767.295-2.5,1.177,0,2.5,0,2.5-1.913-.442-2.208.441-2.5,1.03-1.323,1.914,3.826,1.178,4.562.294,3.238-.441,4.269-.883,1.472,0,1.766-.589,1.472-.295,2.208,1.913c0,0-3.24-.147-3.533.737l.293,1.177s-1.618-1.03-2.059-.589.146,1.472.146,1.472-1.766-.737-2.355,0a2.156,2.156,0,0,0-.294,1.766s-1.914-1.031-2.357-.295a1.3,1.3,0,0,0,.295,1.767c.441.294-.734.441-1.03.883s-2.061.737-1.325,1.325,2.208,1.473,3.238,1.326a20.3,20.3,0,0,0,3.827-1.032c.588-.294-.294,1.18.588,1.326s2.063-1.03,2.063-1.03a.574.574,0,0,0,.734.588c.736-.146,2.209-.884,2.356-1.324s1.473-1.472,2.061-1.178,1.621.295,1.766-.147,2.063,1.178,3.68.442a1.542,1.542,0,0,1,2.356.883c.146.44,1.323,2.061,1.177,2.5s-1.472,0-1.913-.295-.738-2.5-1.767-2.061-2.061-.882-2.061,0-.441,1.031-1.324.883-2.356.295-1.62,1.178a9.008,9.008,0,0,0,1.731,1.545c-.154.061-.224.195-.111.439.441.961-1.472,1.255-2.65.666s-1.765-1.913-2.944-1.325a1.621,1.621,0,0,0-.736,1.939s-1.912-2.389-2.648-1.28-.441.372-.736,1.108-1.766-.981-2.061.173,1.031,1.741,1.031,1.741-1.177-.441-1.619.148-.295-.295-.442.589-1.031.883-1.767,1.177-1.03.294-.883,1.031-.442,1.765,1.177,1.471,4.563,2.359,5.3.591-.294-2.505.293-2.8-.441,1.178.884,1.766,1.62.74,2.208,1.033c.519.258,3.335-.629,4.594-.942-.4.194-.652.492-.473.942.591,1.469,2.061,1.324,3.091,1.027s5.448-.44,5.742,0-.883,1.914.294,2.357a10.436,10.436,0,0,0,3.826.884,9.172,9.172,0,0,0,3.533-1.031c.736-.295.295-1.767-.147-2.061s-2.356-2.208-1.913-2.8a4.959,4.959,0,0,0,.736-2.061c.147-.736.883.589,2.061.146s1.914,1.619,2.356,1.914c.258.172,1.375,1.5,2.522,2.787-.524.248-.859.624-.608,1.186.589,1.325,2.061,2.5,1.325,1.915s-2.8-1.177-2.356-.442,1.62,1.913,1.177,1.913-2.06-.735-1.619,0,1.472,1.766,1.03,2.061-1.471-.442-1.177.441,2.944,2.208,2.5,2.5-3.385-.588-3.385.737-.294,1.03-1.178,1.324-1.472-1.031-2.355-.735-1.03.883-1.472,1.03-1.47-1.177-1.618-.147-.588,1.914.443,2.208,1.914,1.767,1.029,1.912-1.912.442-1.912,1.326-.841.736-.841,1.766,1.134,1.767,2.459,1.472,3.533-1.472,4.416-1.177-.735.884.59,1.031,1.62-.589,2.356-.295.146,1.472,1.325,1.177,2.206-1.326,3.238-1.177,3.237,1.325,3.826,0,.589-1.62-.44-2.208-1.914-.295-2.5-1.324-.736-2.208-1.472-2.357-.884-2.208.441-1.62,1.912,1.473,3.092,2.209a28.206,28.206,0,0,1,3.688,4.475c-.589.442-.907,10.173-1.055,10.762s.589,3.533.295,3.977-3.533-2.944-4.269-3.018-1.031.66-1.031,1.1,6.476,7.36,6.625,8.391c0,0,.259,11.192.039,11.923s-.441,14.417-1.1,17.508a68.311,68.311,0,0,0-1.1,12.587v32.456s.22,17.442,0,19.652-1.1,9.935-1.1,9.935h16.117s-4.638-10.378-5.078-15.676-1.325-16.338-1.546-19.872-.22-23.844-.22-23.844.22-12.586.22-13.689-.22-11.482.441-12.584,5.741-4.419,6.623-5.523,5.521-8.168,6.4-9.273,5.08-3.311,6.182-3.753,1.326-.883,3.093-.661,1.987,1.325,2.87.882-1.766-1.85-1.766-1.85.663-1.681,1.766-1.018,3.753,2.428,3.753,2.428,2.649,2.879,3.092,1.55-2.651-4.2-1.767-4.2,5.521,4.2,5.521,4.2h2.648s2.651-.446,2.651-1.771,0-1.986-1.105-2.206-2.65.22-3.091-.885,0-1.545-1.543-1.766a7.844,7.844,0,0,1-2.872-1.1s3.09-.665,1.988-1.547-3.533,0-3.533,0,1.325-2.492.22-2.35-4.415,1.467-5.078,1.026-1.325-.505-2.206-1.026-1.988-.741-1.327-1.4,2.208-1.1,1.547-1.545-1.547.219-2.65,0-2.871-.884-3.752-.664a4.652,4.652,0,0,0-2.43,1.545c-.441.664,0-.662-1.323-.662s-1.107,2.728-1.107,2.728l-1.1-1.844-1.325,4.194s.365.222-1.583,1.547a5.881,5.881,0,0,1-3.716,1.1s-1.545,1.325-2.87,1.1-2.208,2.257-1.547,2.565,1.336.527,2.876,1.188,1.981,3.321,2.863,1.771-1.323-3.488-.22-2.959,2.575,1.63,2.613,1.409.7-1.324,1.142-.441-1.986,4.195-1.986,4.195l.22,1.988s-6.26,6.268-8.649,6.556S2464.431,546.067,2464.343,545.478Zm5.8-31.447c-.837-.094-.617.159-1.31.021a4.7,4.7,0,0,0-1.62-.042c-.589.042-.736,1.329-1.62-.051s-1.177-2.41,0-2.7,3.147,1.031,4,.736a3.981,3.981,0,0,1,1.738-.147s-.671,1.148-1.19,2.188c.049.006.1.012.16.021.6.086.753.523,1.037.99.51-1.344,1.024-3.077,1.892-2.756a2.984,2.984,0,0,1,1.62,1.324,6.728,6.728,0,0,0,1.929-.441c.441-.294.736.545,1.03,1.229a.612.612,0,0,1,.055.266c.595-.518,1.157-.962,1.565-.759.489.244.212,1.12.091,2a2.111,2.111,0,0,1,.351.205c1.03.735,2.65.735,4.416,1.471s3.237,1.913,2.208,2.5a3.439,3.439,0,0,1-3.386,0c-1.472-.59-1.767-1.473-3.092-2.356-.592-.394-.6-1.111-.5-1.824.461-.972.775-2.077.129-2.593-.625-.5-1.815,1.78-1.785,1.348-.7.607-1.441,1.314-2.039,1.207-1.107-.2-2.726,1.714-2.726,1.714s.591-1.03-.736-1.619a2.168,2.168,0,0,1-1.024-.924C2470.455,512.764,2469.733,514.852,2470.146,514.031Zm-5.286,7.38c.884-.588,1.177,1.472,1.767,0s.441,1.031,1.472.589.882,1.765,1.472,1.62.734.589.734.589-3.531,5.739-4.269,4.856-1.177-3.973-1.177-4.856S2463.978,522,2464.86,521.411Zm-8.1-46.81c.736,1.326.639,3.974,1.054,4.565s-2.083-2.062-3.556-3.093-2.355-2.5-1.472-2.943a21.544,21.544,0,0,0,2.457-1.648A21.593,21.593,0,0,0,2456.764,474.6Zm-1.618,20.089c.882-.217,1.618,1.845,1.912,2.432s1.178,2.943-.147,2.061c-.81-.54-1.731-2.624-2.324-4.159A1.271,1.271,0,0,1,2455.146,494.691Zm3.679-19.941c-.222-.224-1.718-2.819-2.747-3.93.835-.7,1.511-1.391,1.569-1.811.05-.352.581-.12,1.288.273A33.937,33.937,0,0,1,2458.825,474.75Zm5.111-2.81a55.69,55.69,0,0,1-2.462,6.195c-.236.237.075-3.675.257-7.464.492.12.887.061,1.07-.337C2463.123,469.624,2463.473,470.748,2463.937,471.94Zm-6.427,41.594a12.035,12.035,0,0,0,1.907,1.843c1.029.589.589,1.471,1.176,2.061a8.446,8.446,0,0,1,1.177,1.767s-.52.763-1.134,1.617a27.159,27.159,0,0,0-1.663-2.207C2458.277,517.819,2457.85,515.281,2457.509,513.534Zm-3.394-.954c.147-.884.44-2.5.44-2.5s.536.659,1.26,1.514c.2,1.253.688,4.522.212,4.522-.589,0-1.472,0-1.765-.884A5.374,5.374,0,0,1,2454.115,512.579Zm-6.035-20.607c.884,0,.736,2.2,2.8,2.719s.736.863,1.914,1.28a1.072,1.072,0,0,0,.556.058c.846,2.192,2.044,4.987,2.828,5.51a11.6,11.6,0,0,1,3.679,4.416c.444,1.325-1.471-1.177-2.059-.589s.588,2.209-.3,2.209-1.029-5.149-2.354-4.856-1.767-2.064-2.208-1.033a4.19,4.19,0,0,1-.577.975c-.613-.261-3.139-1.377-3.4-2.151-.295-.883,1.03-2.208.441-2.8s-1.177-.146-1.325-1.03.441-1.334-.295-1.991S2447.2,491.972,2448.08,491.972Z" transform="translate(-2404.026 -436.674)" fill="#001f1b"/><path d="M2546.836,886.919s-16.78-15.236-18.987-16.118H2525.2s14.8,15.657,20.534,22.52C2545.733,893.321,2547.5,890.01,2546.836,886.919Z" transform="translate(-2489.87 -761.577)" fill="#001f1b"/><path d="M2430.2,807.265s2.986,1.119,2.364,1.617-1.159-.126-1.139.5,1.684.908,1.224,1.449-1.039-.789-1.183,0,2.3,1.786,1.263,1.909-2.03-.744-2.528-.871-.46.506-.5.883a1.463,1.463,0,0,1-2.114.985c-1.367-.623-1.668-.9-1.642.171s.4,1.818-.846,1.32-1.739.5-2.611.87-1.492.5-1.864,0-1.118-.089-1.742.328-1.615.95-1.49,0-.375-.949-1.119-1.569a1.22,1.22,0,0,1,0-1.991c.62-.5,1.243-.138,1.615-.753s-1.119-.826-.746-1.281,1.494-.7,1.243-1.324-1.368-1.865-1.989-1.494-1.989,1.617-2.363.5a1.956,1.956,0,0,1,.623-1.965s-1.617,1.59-2.115.968,0-.691-.745-.968-.623.469-1.245.6-1.617-1.191-1.989-.6,1.119,1.339.995,2.211-.492,0-1.054.374-.557,1.035,0,1.7-.065,1.519-1.308.844-2.487-1.757-2.487-.844,2.114,2.406.995,2.282-2.611-1.119-2.611-.746.746,2.238,0,1.618-1.617-2.24-1.99-1.618-.5,1.864-1.244.995-.124-2.129-1.367-1.686-3.357,2.184-3.234,1.065,1.368-1.866,1.119-2.487-1.865,1.78-2.362.578-.249-2.072-.748-2.195-.62.622-1.366.622-.871-.871-1.119-1.37-.5.125-1.245-.247-.993-.072-.744-1.093-1.989-1.395-1-2.018-.247-1.741,1.245-1.368,1.243,1.494,1.863.871.126-.893,1.12-.945,1.865-.57,2.611,0,1.12,1.071,1.368.325.994-1.3,1.617-.591-1.12-2.146-1.492-2.271-.373-.744-1.119,0-.994-.225-1.742-.359-1.492-1.381-1.988-.758-.746,2.114-1.243,1.366-.5-.5-1.243-.87-.512.276-1.252-.669-.988.945-1.856,0-1.494-2.563,0-2.689,1.989.747,2.363,0a3,3,0,0,1,1.739-1.742c.873-.249,2.613,1.37,2.862.622s-2.114-2.86-.5-2.734a5.407,5.407,0,0,1,2.735.62c.622.374-1.119-2.238.125-1.863s2.238,2.609,2.735,2.112-.249-3.057.747-2.15,2.735,2.773,2.984,2.026.373-1.865,1.119-.871,1.368,2.115,1.119,2.735.124.747.621.624,0,.5.622.62.621-.62.87-1,0-2.113.747-1.741-2.488-1.118-1.12-1.865.87-1.951,2.114-.726,1.243,1.6,2.363,1.1-.622-2.131,1.492-1.626,2.986.38,2.86,1.5-.745,1.991.249,1.743-.371-2.364,1.866-1.616,1,3.23.872,3.854-1.742.372-1.492,1.241.744.746,1.989,1.119a1.528,1.528,0,0,1,.746,2.364c-.5.373-.995,2.735.125,2.361s-.5-1.74.994-1.865,2.611,1.12,2.734,0-.74-3.233.686-1.988-.187,3.108.932,2.61,1.617-2.487,2.114-1.493-.871,2.239.125,1.991,1.616-1.243,2.363-.746.372,1.118.995,1.366,1.118-1.492,1.987-.5,2.585.746,1.418,1.989.715.125.394,1.242S2430.2,807.265,2430.2,807.265Z" transform="translate(-2384.778 -701.571)" fill="#001f1b"/></g><g transform="translate(1831.818 337.527)"><path d="M1954.207,825.238v1.518A2.144,2.144,0,0,0,1954.207,825.238Z" transform="translate(-1954.207 -825.238)" fill="#97acad"/></g><g transform="translate(1906.258 360.249)"><g transform="translate(0 0)"><path d="M2476.947,1008.005a11.277,11.277,0,0,0,2.071-1.224c.471-.471,3.578-2.73,3.485-3.3s-1.131-.189-1.884,0-4.708.376-6.025,3.2S2476.947,1008.005,2476.947,1008.005Z" transform="translate(-2417.893 -981.139)" fill="#00211c"/><path d="M2370.526,1157.651s-4.1,10.028-4.8,12.007-1.13,4.376-2.119,5.79-1.27,2.4-2.257,5.507-1.413,7.91-1.838,8.614.989,2.968.989,2.968h-3.673a22.729,22.729,0,0,1,0-3.108c.143-.423-.548-.423-.063-1.554a56.8,56.8,0,0,0,2.323-6.777,28.752,28.752,0,0,0,1.271-6.5,10.186,10.186,0,0,1,1.129-4.231,21.889,21.889,0,0,0,.988-6.641c-.139-1.693-.988-4.234-.706-8.189s8.758-2.542,8.758-2.542Z" transform="translate(-2329.79 -1093.07)" fill="#00211c"/><path d="M2306.025,1013.174c-.823-.374-.565,2.564-.565,5.838,0,9.039-1.193,11.047-4.189,14.364-1.364,1.509-2.407,1.978-2.689,2.825s-1.554,3.529-1.976,4.659-.988,10.876-.849,11.724,0,3.671.143,4.8-.424,2.684-.424,3.673,2.4,11.864,2.966,12.852,2.966,2.824,2.824,3.248-1.412.141-1.412.141l-3.107-.282s-1.553-1.273-1.7-1.978-2.119-12.569-2.541-13.7-.707-3.108-1.129-4.52-1.272-7.061-1.978-9.18-1.359-5.223-1.359-5.223a38.628,38.628,0,0,0-8.758-.323,62.868,62.868,0,0,1-9.98-.245c-.282.8-2.918,3.244-3.578,3.715a11.234,11.234,0,0,0-2.637,2.92c-.376.847-.847,7.438-.847,7.908s4.52,15.349,5.556,16.007,2.918,2.447,2.26,2.918a2.668,2.668,0,0,1-2.073.094c-.282-.094-.942.1-1.694,0s-1.037-1.036-1.037-1.036c-.563-1.789-6.026-14.971-6.779-16.383a4.111,4.111,0,0,1-.471-2.637c-.752.847-.941,3.391-1.036,4.426s.755,13.56,1.789,15.347,1.694,2.831,1.694,2.831a19.86,19.86,0,0,0-2.447-.005,4.357,4.357,0,0,1-2.447-1.225c-.189-.378.282-1.319.282-2.543s-1.883-13.557-2.259-14.594a36.292,36.292,0,0,1-1.6-5.274c0-.753,4.142-7.438,4.142-7.438s-.188-2.73-.282-3.389-2.636-4.048-3.389-6.4a6.2,6.2,0,0,1-.283-3.673c-.943-1.693-2.26-5.459-2.071-6.78s3.672-4.707,3.672-4.707c.847-1.224,3.389-1.964,3.389-1.964.847-.837,6.661,0,8.65.537a35.448,35.448,0,0,0,12.3.446c1.035-.285,3.345-.229,4.474-.5s4.617.274,5.276.087,2.933-.341,3.8-2.274c2.134-4.771,5.713-10.423,5.9-11.174s-.387-1.99-.314-2.833c.331-3.855,1.283-5.219,2.336-6.615,0,0,1.06,1.033,1.118,1.789.125,1.632.586,1.3.586,1.3a2.135,2.135,0,0,1,1.422-.606,3.55,3.55,0,0,1,2.071.755c.282.282.8-.1,1.2,0a6.715,6.715,0,0,1,1.653.91,7.247,7.247,0,0,0,1.038.753,15.116,15.116,0,0,1,2.447,1.224c.19.283,0,1.13,0,1.13l8.005,4.52a2.065,2.065,0,0,1-1.038,1.789,1.311,1.311,0,0,1-.471.66,8.035,8.035,0,0,1-5.517.184s-.94.186-1.695.374S2307.191,1013.7,2306.025,1013.174Z" transform="translate(-2250.079 -976.985)" fill="#00211c"/><path d="M2453.013,943.425s.192-1.6.659-1.979,8.288-2.73,8-7.344c0,0-.183-1.129-.47-.658s-1.42,5.461-8.194,6.214c0,0-1.788-1.13.85-5.272a3.031,3.031,0,0,1,1.6-1.056c1.035-.261,5.183-1.958,5.744-3.369s-.285-.941-.756-.659-2.73,2.824-5.741,2.541c0,0-.942.189-1.7-3.482-.866-4.2-1.127-5.086-1.6-5.933,0,0,1.036-1.508.753-1.977s-.566,1.129-1.79,1.5c0,0-2.261-3.293-2.165-2.73s1.695,2.73,1.318,2.825c0,0-3.859-1.224-3.672-.847s3.577,1.6,4.236,3.107,2.167,6.779,2.073,8a3.688,3.688,0,0,1-.19,1.883,10.458,10.458,0,0,0-.941,4.236c0,1.886.378,4.051.189,4.993S2453.013,943.425,2453.013,943.425Z" transform="translate(-2396.597 -918.253)" fill="#00211c"/><path d="M2405.457,940.723s-1.331-2.915-.759-3.953,5.455-1.482,5.226-3.813c0,0-2.969,2.119-5.368,1.977a4.613,4.613,0,0,1-3.106-1.977,29.586,29.586,0,0,0-9.123-8.119c-2.826-1.834-4.12-3.12-3.839-5.237,0,0,1.2-3.418.637-3.984s-.574,2.684-2.406,2.966c0,0-1.548-1.129-1.832-1.835s-.591-.128,1.832,3.354c1.431,2.055,1.844,3.456,4.24,5.4a60.832,60.832,0,0,1,6.9,6.593c.87.928,5.143,4.673,4.861,8.631C2402.722,940.723,2405.6,941.194,2405.457,940.723Z" transform="translate(-2350.828 -915.551)" fill="#00211c"/><path d="M2426.395,941.41s2.2-4.428,1.866-7.769c0,0-.314,0-.439.44a18.882,18.882,0,0,1-2.433,6.26S2425.087,941.91,2426.395,941.41Z" transform="translate(-2381.259 -929.09)" fill="#00211c"/></g></g></g></svg>