<svg xmlns="http://www.w3.org/2000/svg" width="1217" height="896" viewBox="0 0 1217 896"><g transform="translate(-893 -300)"><circle cx="448" cy="448" r="448" transform="translate(1214 300)" fill="#3e64ff" opacity="0.1"/><g transform="translate(893 409.037)"><g transform="translate(700.885 0)"><rect width="134.528" height="170.707" transform="translate(149.031)" fill="#dcdfee"/><rect width="134.528" height="174.912" transform="translate(149.031 186.365)" fill="#dcdfee"/><rect width="134.528" height="170.707" transform="translate(0)" fill="#dcdfee"/><rect width="134.528" height="174.912" transform="translate(0 186.365)" fill="#dcdfee"/></g><g transform="translate(399.988 80.663)"><g transform="translate(138.3 181.594)"><g transform="translate(23.078 219.923)"><rect width="14.111" height="49.858" transform="translate(73.19 32.59)" fill="#fff"/><path d="M495.228,189.328H567.98a13.545,13.545,0,0,0,13.544-13.544h0a13.544,13.544,0,0,0-13.544-13.54H495.228a13.543,13.543,0,0,0-13.54,13.54h0A13.544,13.544,0,0,0,495.228,189.328Z" transform="translate(-451.911 -162.244)" fill="#1c2e34"/><rect width="25.813" height="17.708" transform="translate(66.917 20.754)" fill="#1c2e34"/><rect width="25.813" height="77.526" transform="translate(66.917 74.356)" fill="#1c2e34"/><rect width="145.78" height="10.786" transform="translate(8.425 142.328)" fill="#1c2e34"/><rect width="8.55" height="33.533" transform="translate(145.655 142.328)" fill="#1c2e34"/><path d="M472.524,218.909a13.4,13.4,0,1,0,13.4-13.4A13.4,13.4,0,0,0,472.524,218.909Z" transform="translate(-335.296 -43.046)" fill="#1c2e34"/><rect width="8.551" height="33.533" transform="translate(8.425 142.328)" fill="#1c2e34"/><path d="M509.071,218.909a13.4,13.4,0,1,0,13.4-13.4A13.395,13.395,0,0,0,509.071,218.909Z" transform="translate(-509.071 -43.046)" fill="#1c2e34"/></g><g transform="translate(0)"><path d="M504.968,339.008A100.2,100.2,0,0,0,605.052,238.924V116.314a12.639,12.639,0,1,0-25.278,0v122.61a74.888,74.888,0,0,1-74.806,74.806,12.639,12.639,0,0,0,0,25.278Z" transform="translate(-492.333 -103.675)" fill="#ff6e65"/><path d="M547.2,103.675H682.149l-8.206,99.012,3.936,74.471L610.573,320.01l-15.867,19H459.761l36.678-23.252,27.355-31,10.942-6.687,9.118-60.181.608-72.339Z" transform="translate(-447.124 -103.675)" fill="#ff6e65"/><path d="M469.03,339.008A100.2,100.2,0,0,0,569.114,238.924V116.314a12.639,12.639,0,0,0-25.278,0v122.61A74.888,74.888,0,0,1,469.03,313.73a12.639,12.639,0,0,0,0,25.278Z" transform="translate(-321.45 -103.675)" fill="#ff9184"/></g></g><g transform="translate(0)"><g transform="translate(3.393 320.181)"><g transform="translate(0)"><g transform="translate(0 166.422)"><path d="M530.8,259.307l1.068-72.451,36.775-1.952-1.013,77.819-35.468.226Z" transform="translate(-465.467 -184.904)" fill="#ffb0a0"/><g transform="translate(0 55.386)"><path d="M634.5,206.863s-30.411,12.508-44.7-7.209l-62.61,38.034,116.73-.751Z" transform="translate(-527.193 -199.654)" fill="#0b181b"/><rect width="10.75" height="116.731" transform="translate(0.074 48.785) rotate(-90.369)" fill="#fff"/><path d="M552.028,214.076a2.029,2.029,0,0,1-.852-.65,42.761,42.761,0,0,0-9.624-9.384,1.9,1.9,0,0,1-.567-2.719,2.147,2.147,0,0,1,2.854-.548,45.757,45.757,0,0,1,10.675,10.345,1.9,1.9,0,0,1-.458,2.741A2.156,2.156,0,0,1,552.028,214.076Z" transform="translate(-488.656 -197.438)" fill="#fff"/><path d="M554.7,215.415a2.1,2.1,0,0,1-.853-.646,42.589,42.589,0,0,0-9.62-9.384,1.908,1.908,0,0,1-.571-2.722,2.141,2.141,0,0,1,2.854-.544A45.554,45.554,0,0,1,557.19,212.46a1.908,1.908,0,0,1-.458,2.745A2.15,2.15,0,0,1,554.7,215.415Z" transform="translate(-501.377 -193.753)" fill="#fff"/><path d="M557.379,216.752a2.077,2.077,0,0,1-.852-.65,42.521,42.521,0,0,0-9.624-9.376,1.9,1.9,0,0,1-.567-2.722,2.14,2.14,0,0,1,2.854-.548A45.825,45.825,0,0,1,559.868,213.8a1.9,1.9,0,0,1-.458,2.741A2.152,2.152,0,0,1,557.379,216.752Z" transform="translate(-514.099 -190.066)" fill="#fff"/></g></g><g transform="translate(49.787)"><g transform="translate(0)"><path d="M652.995,140.583l-17.242,14.442c5.031,30.835,21.655,58.836-9.59,58.836h-55.4V341.243l-62.159.83-3.47-156.059a44.422,44.422,0,0,1,44.316-45.251Z" transform="translate(-503.188 -140.583)" fill="#3252d6"/><rect width="71.512" height="24.107" transform="translate(0 177.385)" fill="#0086ff"/></g></g></g><g transform="translate(99.581)"><g transform="translate(0 166.422)"><path d="M504.282,259.307l1.068-72.451,36.775-1.952-1.013,77.819-35.468.226Z" transform="translate(-438.946 -184.904)" fill="#ffb0a0"/><g transform="translate(0 55.386)"><path d="M607.978,206.863s-30.411,12.508-44.695-7.209l-62.61,38.034,116.73-.751Z" transform="translate(-500.673 -199.654)" fill="#0b181b"/><rect width="10.75" height="116.731" transform="translate(0.074 48.785) rotate(-90.369)" fill="#fff"/><path d="M525.508,214.076a2.028,2.028,0,0,1-.852-.65,42.678,42.678,0,0,0-9.624-9.384,1.9,1.9,0,0,1-.567-2.719,2.147,2.147,0,0,1,2.854-.548,45.747,45.747,0,0,1,10.675,10.345,1.9,1.9,0,0,1-.454,2.741A2.164,2.164,0,0,1,525.508,214.076Z" transform="translate(-462.136 -197.438)" fill="#fff"/><path d="M528.185,215.415a2.088,2.088,0,0,1-.856-.646,42.584,42.584,0,0,0-9.62-9.384,1.908,1.908,0,0,1-.571-2.722,2.141,2.141,0,0,1,2.854-.544A45.477,45.477,0,0,1,530.67,212.46a1.905,1.905,0,0,1-.458,2.745A2.143,2.143,0,0,1,528.185,215.415Z" transform="translate(-474.857 -193.753)" fill="#fff"/><path d="M530.862,216.752a2.062,2.062,0,0,1-.856-.65,42.518,42.518,0,0,0-9.624-9.376,1.907,1.907,0,0,1-.567-2.722,2.141,2.141,0,0,1,2.854-.548A45.749,45.749,0,0,1,533.347,213.8a1.9,1.9,0,0,1-.458,2.741A2.144,2.144,0,0,1,530.862,216.752Z" transform="translate(-487.578 -190.066)" fill="#fff"/></g></g><g transform="translate(48.04)"><g transform="translate(0)"><path d="M611.756,140.583l2.354,14.442a50.677,50.677,0,0,1-50.016,58.836H549.119V341.243l-62.163.83-3.466-156.059A44.419,44.419,0,0,1,527.8,140.763Z" transform="translate(-481.545 -140.583)" fill="#3e64ff"/><rect width="71.512" height="24.107" transform="translate(0 177.385)" fill="#00b1ff"/></g></g></g></g><g transform="translate(0 136.794)"><g transform="translate(0 8.708)"><g transform="translate(0 110.31)"><path d="M605.7,133,521.942,150.63l-4.514,16.8L627.1,168.988l8.786-45.548Z" transform="translate(-479.099 -123.44)" fill="#f9a498"/><path d="M596.59,135.64s-17.126-10.394-34.1-6.057c-11.19,2.861-22.278,13.619-21.418,25.136h0l68.133-.871Z" transform="translate(-541.026 -109.432)" fill="#f9a498"/></g><g transform="translate(108.858)"><path d="M525.572,109.862l-9.669,71.7s41.867,22.03,40.985,19.383,9.391-91.087,9.391-91.087Z" transform="translate(-512.621 -50.538)" fill="#f9a498"/><path d="M567.131,94.063S536.4,98.9,529.394,125.12c-9.132,34.174-12.609,39.1-12.609,39.1l46.464,6.759Z" transform="translate(-516.785 -94.063)" fill="#0b181b"/></g></g><g transform="translate(147.297)"><g transform="translate(0)"><path d="M553.451,91.744l-59.061,8.708a12.293,12.293,0,0,0-10.5,12.042l-1.4,140.108L614.251,253l8.941-122.227-4.9-16.567a20.973,20.973,0,0,0-16.8-14.768Z" transform="translate(-482.483 -91.744)" fill="#0b181b"/></g></g><g transform="translate(136.101 4.944)"><g transform="translate(96.824)"><path d="M474.05,123.8l24.672,63.784,38.057-33.123-14.77-45.9Z" transform="translate(-450.031 -50.357)" fill="#ffb0a0"/><path d="M473.541,93.062S519.4,92.656,530.8,106.2c14.359,17.059,31.4,60.657,31.4,60.657l-74.588,16.435Z" transform="translate(-473.541 -93.061)" fill="#0b181b"/></g><g transform="translate(0 104.099)"><path d="M558.476,143.261,472.4,162.43l3.545,19.06,101.7.68s45.487-9.177,23.138-61.386Z" transform="translate(-417.22 -120.784)" fill="#ffb0a0"/><path d="M560.1,135.924s-20.224-7.915-36.971-4.788c-11.374,2.125-19.012,12.973-18.148,24.512v.015l67.6-.62Z" transform="translate(-504.918 -94.278)" fill="#ffb0a0"/><line y1="2.942" x2="21.251" transform="translate(141.255 19.533)" fill="none" stroke="#e98980" stroke-miterlimit="10" stroke-width="0.5"/></g></g></g><g transform="translate(155.764)"><path d="M522.074,63.963s-23.42,22.008-.357,29.983Z" transform="translate(-499.011 -31.485)" fill="#0b181b"/><path d="M539.185,85.916a16.02,16.02,0,0,1-15.23,16.668A15.85,15.85,0,0,1,507.846,86.9a16.026,16.026,0,0,1,15.23-16.672A15.856,15.856,0,0,1,539.185,85.916Z" transform="translate(-502.165 -14.237)" fill="#203fbc"/><path d="M498.92,93.843l-1.228,31.207c-.454,10.957,5.846,17.059,16.3,17.363h0c8.922.259,18.887-3.68,18.876-13.353l-.353-49.19Z" transform="translate(-457.646 12.34)" fill="#ffb0a0"/><path d="M497.754,110.275s25.335,3.143,34.354-25.166c2.839-8.918-33.4,1.217-33.4,1.217Z" transform="translate(-457.366 16.658)" fill="#0b181b"/><path d="M525.7,157.382h0c-17.821-.661-31.955-15.744-31.883-30.79l.319-31.474c.09-18.861,14.652-34.283,32.908-34.861h0c18.692-.59,37.546,14.475,38.068,33.772l-.548,24.523C564.1,140.632,547.078,156.707,525.7,157.382Z" transform="translate(-475.415 -41.74)" fill="#ffb0a0"/><g transform="translate(21.351 56.9)"><path d="M507.713,75.641l-.847,6.057,4.4.344" transform="translate(-491.932 -56.214)" fill="none" stroke="#0b181b" stroke-linecap="round" stroke-linejoin="round" stroke-width="1"/><path d="M508,70.837s-7.273-.912-7.472,2.152c0,0-.079,2.076,6.274,2.745s8.028.255,8.685-1.675S511.425,70.995,508,70.837Z" transform="translate(-472.439 -69.797)" fill="#0b181b"/><path d="M514.794,70.486s6.049-.4,6.425,2.5c0,0,.206,1.964-5.084,2.193s-6.98-.533-7.416-2.129C508.226,71.244,511.925,70.418,514.794,70.486Z" transform="translate(-508.674 -70.467)" fill="#0b181b"/><path d="M515.509,76.257a3.068,3.068,0,1,1-3.042-3.184A3.125,3.125,0,0,1,515.509,76.257Z" transform="translate(-505.604 -63.288)" fill="#0b181b"/><path d="M508.354,76.3a3.069,3.069,0,1,1-3.042-3.184A3.125,3.125,0,0,1,508.354,76.3Z" transform="translate(-471.567 -63.172)" fill="#0b181b"/><path d="M8.973-.273a4.625,4.625,0,0,1-2.208,2.2C4.248,3.338,0,2.412,0,2.412" transform="translate(15.466 33.9)" fill="none" stroke="#0b181b" stroke-linecap="round" stroke-width="2"/></g><path d="M489.724,73.985l13.522-1.915c-3.947-2.512-7.908-5.009-7.908-5.009A72.385,72.385,0,0,1,516.846,63.9a63.846,63.846,0,0,1,28.988-7.408c15.7-.192,29.1,8.321,33.948,17.689l.011-.015s13.03-.8,14.817,13.95c2.321,19.116-20.686,50.692-20.686,50.692l-2.579-24.974c-14.265-1.021-14.926-13.6-13.807-21.8-6.417.544-28.553,2.005-45.855-1.851a19.985,19.985,0,0,1-6.609-1.832C496.907,85.532,490.809,81.045,489.724,73.985Z" transform="translate(-489.724 -52.089)" fill="#0b181b"/><g transform="translate(80.482 64.283)"><path d="M514.659,84.981a12.817,12.817,0,0,1-12.181,13.338,12.677,12.677,0,0,1-12.883-12.545,12.813,12.813,0,0,1,12.181-13.334A12.681,12.681,0,0,1,514.659,84.981Z" transform="translate(-489.59 -72.433)" fill="#ffba99"/><path d="M491.79,82.822s-.252-9.38,8.475-8.178" transform="translate(-483.449 -66.636)" fill="none" stroke="#312220" stroke-linecap="round" stroke-linejoin="round" stroke-width="0.558"/></g><g transform="translate(43.982)"><path d="M493.187,57.454l-.394,1.806s22.642,2.381,32.965,16.146c11.505,15.339,11.685,36.032,11.685,36.032l4.9.413-.327-32.807L532.2,68.82l-15.643-9.357-10.946-3.5Z" transform="translate(-492.793 -53.525)" fill="#203fbc"/><g transform="translate(30.577 53.758)"><path d="M488.712,85.723c-2.339,10.78,4.619,21.441,18.29,24.4,9.669,2.1,14.389-6.03,16.725-16.811S520.122,72.1,510.453,70,491.051,74.942,488.712,85.723Z" transform="translate(-488.265 -69.63)" fill="#203fbc"/><path d="M487.438,86.013c-2.339,10.78,3.6,21.219,13.274,23.314s19.405-4.942,21.745-15.722-3.6-21.219-13.274-23.314S489.777,75.232,487.438,86.013Z" transform="translate(-481.975 -68.831)" fill="#3e64ff"/></g><path d="M546.944,112.822a76.355,76.355,0,0,0-.984-25.087C542.348,71.161,529.09,59.329,512.4,56.291c-1.277-.233-2.617-.447-4.033-.638-4.855-.646-10.1-.511-14.494,1.66a17.474,17.474,0,0,0-3.109,1.93s21.993.909,32.578,12.673c11.929,13.255,15.057,31.068,14.321,42.919Z" transform="translate(-490.365 -55.314)" fill="#3e64ff"/></g><path d="M552.292,95.717l-24.813-3.973-33,4.863s-2.031,19.255,25.871,20.066S552.292,95.717,552.292,95.717Z" transform="translate(-464.978 45.05)" fill="#ffb0a0"/></g></g></g><g transform="translate(0 132.944)"><g transform="translate(84.409)"><g transform="translate(107.584)"><g transform="translate(0)"><path d="M831.62,251.342,819.9,259.756,736.787,189.6,534.388,77.862l10.931-7.929,138.843,42.657Z" transform="translate(-530.522 -67.321)" fill="#cb9da8"/><path d="M794.893,78.32l32.95,163.7a11.317,11.317,0,0,1-11.092,13.552H579.559a11.319,11.319,0,0,1-11.066-8.948L533.452,82.92a11.318,11.318,0,0,1,11.066-13.683H783.8A11.315,11.315,0,0,1,794.893,78.32Z" transform="translate(-522.5 -69.237)" fill="#cb9da8"/><path d="M797.742,80.376l32.953,163.7a11.321,11.321,0,0,1-11.1,13.552H582.411a11.316,11.316,0,0,1-11.066-8.948L536.3,84.976a11.316,11.316,0,0,1,11.066-13.683H786.649A11.314,11.314,0,0,1,797.742,80.376Z" transform="translate(-536.046 -63.573)" fill="#eac8ce"/><path d="M581.523,109.39l4.425,43.288H566.7Z" transform="translate(-406.171 41.381)" fill="#cb9da8"/><path d="M659.123,109.152,639.48,206.085h-71.6l33.584-96.933Z" transform="translate(-483.771 40.726)" fill="#f6dae0"/><ellipse cx="15.89" cy="15.89" rx="15.89" ry="15.89" transform="translate(121.861 59.431)" fill="#fff"/><path d="M561.941,132.564H730.73a4.681,4.681,0,0,1,4.682,4.682h0a4.681,4.681,0,0,1-4.682,4.682H561.941a4.681,4.681,0,0,1-4.682-4.682h0A4.681,4.681,0,0,1,561.941,132.564Z" transform="translate(-520.191 105.225)" fill="#eac8ce"/><path d="M527.045,132.564h89.4a4.681,4.681,0,0,1,4.682,4.682h0a4.681,4.681,0,0,1-4.682,4.682h-89.4a4.683,4.683,0,0,1-4.682-4.682h0A4.683,4.683,0,0,1,527.045,132.564Z" transform="translate(-274.872 105.225)" fill="#eac8ce"/></g></g><g transform="translate(0 246.811)"><line y2="276.421" transform="translate(470.236 15.261)" fill="none" stroke="#55382e" stroke-miterlimit="10" stroke-width="1.161"/><line y2="276.421" transform="translate(645.438 15.261)" fill="none" stroke="#55382e" stroke-miterlimit="10" stroke-width="1.161"/><line y2="276.421" transform="translate(45.054 15.261)" fill="none" stroke="#55382e" stroke-miterlimit="10" stroke-width="1.161"/><line y2="276.421" transform="translate(220.256 15.261)" fill="none" stroke="#55382e" stroke-miterlimit="10" stroke-width="1.161"/><rect width="165.752" height="22.228" transform="translate(520.421)" fill="#a48250"/><rect width="520.739" height="22.228" fill="#d4ac71"/></g></g><line x2="921.815" transform="translate(0 538.493)" fill="none" stroke="#55382e" stroke-miterlimit="10" stroke-width="1.161"/></g></g></g></svg>